<svg width="24" height="25" viewBox="0 0 24 25" fill="none" xmlns="http://www.w3.org/2000/svg">
<path d="M12.0001 22.2344C12.0001 22.2344 4.00006 17.7344 4.00006 10.4344C3.97337 9.36709 4.16057 8.30526 4.55064 7.31145C4.94072 6.31764 5.52576 5.41197 6.2713 4.64778C7.01685 3.8836 7.90781 3.27638 8.89168 2.86189C9.87556 2.4474 10.9324 2.23404 12.0001 2.23438C13.0677 2.23404 14.1246 2.4474 15.1084 2.86189C16.0923 3.27638 16.9833 3.8836 17.7288 4.64778C18.4744 5.41197 19.0594 6.31764 19.4495 7.31145C19.8395 8.30526 20.0267 9.36709 20.0001 10.4344C20.0001 17.7344 12.0001 22.2344 12.0001 22.2344Z" stroke="white" stroke-width="2" stroke-linecap="round" stroke-linejoin="round"/>
<path d="M12 13.2344C13.6569 13.2344 15 11.8912 15 10.2344C15 8.57752 13.6569 7.23438 12 7.23438C10.3431 7.23438 9 8.57752 9 10.2344C9 11.8912 10.3431 13.2344 12 13.2344Z" stroke="white" stroke-width="2" stroke-linecap="round" stroke-linejoin="round"/>
</svg>
