<svg width="521" height="880" viewBox="0 0 521 880" fill="none" xmlns="http://www.w3.org/2000/svg">
<g opacity="0.3">
<path d="M-140.408 770.043C-144.572 761.226 -148 752.164 -148 749.96V749.715C-148 747.511 -147.266 745.552 -146.286 745.552C-145.062 745.552 -131.102 747.757 -114.938 750.451C-98.774 752.9 -72.8139 756.328 -57.3847 757.797C-41.9554 759.022 -16.4848 760.246 -1.0556 760.246C14.3736 760.246 39.8442 759.022 55.2735 757.797C70.7027 756.328 96.6628 752.9 112.826 750.451C128.99 747.757 142.951 745.552 143.93 745.552C145.155 745.552 145.889 747.511 145.889 749.715C145.889 752.164 142.215 761.226 137.807 769.798C133.399 779.105 122.623 793.554 112.582 804.085C103.03 814.371 86.3767 828.821 75.8457 836.658C65.07 844.25 43.5174 857.23 -1.0556 880.251L-23.8323 868.986C-36.0779 862.618 -55.6699 851.597 -67.1812 844.25C-78.6913 836.658 -98.0396 820.739 -110.285 808.248C-126.204 792.33 -134.776 781.309 -140.408 770.043Z" fill="white" fill-opacity="0.6"/>
<path d="M272.2 698.523C287.139 692.155 311.141 679.664 326.079 671.093C341.019 662.521 354.734 655.419 356.693 655.174C358.653 654.929 366.49 656.643 373.837 658.847C381.184 661.051 392.205 665.215 398.327 668.399C404.451 671.338 430.9 688.237 457.105 705.38C483.31 722.768 508.536 738.687 512.945 740.647C517.352 742.606 521.027 745.055 520.782 746.035C520.782 747.259 513.435 753.382 504.372 760.239C495.067 766.852 477.678 777.872 465.677 784.485C453.677 791.342 435.309 799.914 425.268 804.077C415.226 807.996 397.593 814.119 386.083 817.302C374.571 820.732 353.754 825.14 339.55 827.344C325.345 829.548 300.609 831.263 284.445 831.263C268.282 831.263 244.035 829.548 230.565 827.588C217.096 825.385 195.053 820.732 181.829 817.057C168.359 813.384 155.624 809.22 153.664 807.507C150.236 805.058 150.236 804.322 153.664 800.159C155.868 797.71 161.011 789.628 165.175 782.281C169.093 774.934 174.236 763.179 176.196 756.566C178.155 749.708 180.605 741.381 181.339 737.463C182.809 731.34 185.258 730.116 213.912 720.564C231.301 714.931 257.261 705.135 272.2 698.523Z" fill="white" fill-opacity="0.6"/>
<path fill-rule="evenodd" clip-rule="evenodd" d="M-103.611 145.533L-103.739 145.425C-102.744 143.385 -101.609 141.152 -100.214 138.409L-99.8434 137.681C-93.355 124.923 -80.9633 103.235 -72.6805 90.4937C-63.7755 77.2348 -51.3974 59.8304 -45.4211 52.3358C-39.3842 44.7653 -23.8112 27.0077 -10.6997 13.8524L-10.5481 13.7008L-10.3998 13.546C-5.59814 8.53156 -0.943542 3.92897 3.04962 0.188232C5.99286 2.87499 9.27072 6.00951 12.6351 9.38249C23.6242 20.6787 39.5396 38.4966 48.4333 48.7669C56.4298 58.3176 70.5643 77.9703 79.5433 91.7488L79.6219 91.8686L79.7017 91.9871C88.5909 105.238 101.194 127.867 107.647 141.335C108.22 142.529 108.756 143.632 109.258 144.655C95.9315 155.868 75.8511 175.345 62.1849 190.56C47.0802 206.986 27.2198 231.79 17.1279 246.695L17.0538 246.804L16.9808 246.915C12.1758 254.205 7.23819 262.408 2.25458 271.356C-6.00241 257.374 -15.5654 242.34 -21.4373 233.831L-21.5676 233.643L-21.7023 233.456C-29.8167 222.221 -45.9881 202.781 -57.9475 189.65C-70.1617 176.239 -90.4713 156.605 -103.611 145.533ZM-28.1581 304.421C-25.6427 308.853 -23.2396 313.291 -20.9376 317.762C-30.6476 339.308 -40.835 365.336 -44.4924 377.521L-44.562 377.752L-44.626 377.985C-47.9847 390.165 -52.8055 410.841 -55.6466 423.685L-55.6938 423.897L-55.7364 424.111C-58.4753 437.805 -61.8093 460.786 -63.3376 475.811C-64.8974 491.139 -65.9462 515.967 -65.9462 531.754V531.924L-65.9428 532.096C-65.6857 548.22 -63.8306 575.462 -61.7869 593.003L-61.7711 593.146L-61.752 593.287C-59.4848 610.728 -54.5034 640.562 -49.8432 659.751C-47.256 670.911 -43.5626 684.829 -39.977 697.12C-46.5609 694.296 -53.1031 691.363 -58.719 688.683L-58.838 688.625L-58.9581 688.57C-74.0471 681.597 -97.7098 668.306 -111.284 659.939C-124.358 651.594 -144.274 637.375 -155.147 628.669C-165.968 619.669 -182.486 604.595 -191.614 595.167C-200.949 585.522 -214.867 569.762 -222.365 560.282C-230.005 550.161 -241.576 534.428 -247.874 525.116C-253.563 516.185 -266.555 491.748 -276.255 470.598C-287.689 445.672 -296.33 422.965 -301.538 404.851C-305.728 389.522 -311.509 359.735 -314.156 338.704L-314.172 338.578L-314.188 338.454C-317.074 317.516 -319.042 287.634 -318.812 272.947C-318.571 257.64 -316.935 231.03 -315.063 214.895C-312.87 198.049 -309.361 175.55 -307.253 165.496C-305.126 155.355 -298.892 131.039 -292.848 112.279L-292.786 112.085L-292.727 111.89C-290.557 104.686 -288.335 97.9558 -286.338 92.4104C-282.689 93.5637 -278.607 94.9572 -274.356 96.5197C-259.552 102.184 -237.46 111.783 -224.968 117.451C-213.623 122.839 -192.323 135.02 -178.216 144.002L-178.091 144.08L-177.966 144.158C-164.179 152.671 -142.932 168.422 -131.217 178.293C-119.609 188.075 -100.651 206.387 -89.6201 218.498C-78.4075 230.808 -63.4892 248.804 -56.5652 258.356C-49.677 268.361 -36.6531 289.1 -28.2625 304.234L-28.2109 304.327L-28.1581 304.421ZM-133.916 696.314C-128.852 699.438 -122.437 703.23 -115.496 707.181C-124.65 705.476 -133.271 703.71 -139.811 702.157C-156.045 698.302 -183.278 690.191 -199.741 684.297C-216.645 678.247 -239.265 669.157 -249.457 664.165L-249.611 664.09L-249.766 664.017C-260.533 658.956 -282.397 646.958 -297.552 637.557L-297.629 637.509L-297.708 637.461C-316.488 626.032 -332.669 614.264 -348.116 600.841L-348.198 600.77L-348.281 600.699C-361.03 589.848 -378.024 573.655 -386.022 565.334C-393.507 557.129 -407.094 539.988 -416.076 527.389C-424.887 515.031 -437.53 494.333 -443.779 482.095C-450.1 469.716 -459.422 447.704 -463.709 433.972L-463.76 433.808L-463.814 433.646C-468.526 419.358 -474.222 398.195 -476.133 387.342C-476.328 386.08 -476.535 384.712 -476.75 383.259C-472.052 383.654 -466.944 384.154 -461.665 384.749L-461.493 384.768L-461.32 384.785C-440.315 386.805 -413.879 390.733 -402.987 392.779C-392.176 394.811 -368.764 400.313 -351.51 404.769C-349.05 405.435 -347.023 405.955 -345.335 406.367C-344.474 410.005 -343.63 413.352 -342.822 416.298L-342.789 416.422L-342.753 416.544C-336.79 437.322 -327.263 462.152 -315.196 488.46C-305.045 510.591 -290.972 537.276 -283.805 548.448L-283.67 548.657L-283.532 548.864C-276.556 559.201 -264.187 575.989 -256.414 586.283L-256.278 586.463L-256.138 586.641C-247.642 597.41 -232.627 614.393 -222.396 624.962C-211.94 635.765 -194.13 651.981 -182.38 661.742L-182.238 661.86L-182.094 661.976C-169.914 671.744 -148.512 687.013 -134.18 696.148L-134.048 696.232L-133.916 696.314ZM146.335 702.158C139.128 703.874 129.384 705.848 119.189 707.714C127.186 703.173 134.706 698.694 140.603 694.94C155.905 685.199 179.027 668.371 192.203 657.268C205.342 646.196 225.65 626.562 237.866 613.151C249.672 600.189 265.754 581.008 273.56 569.927C281.594 558.878 295.455 536.76 304.626 520.184C316.489 499.166 325.973 478.496 334.016 456.105C339.594 441.015 346.063 420.61 350.02 406.744C351.891 406.285 354.37 405.649 357.63 404.766C374.846 400.31 398.203 394.809 408.988 392.778C419.853 390.732 446.231 386.804 467.189 384.784L467.362 384.767L467.533 384.748C472.781 384.156 477.858 383.658 482.53 383.264C482.316 384.718 482.109 386.086 481.915 387.348C480.007 398.204 474.323 419.37 469.62 433.657L469.567 433.82L469.515 433.982C465.237 447.717 455.935 469.729 449.627 482.109C443.391 494.348 430.775 515.046 421.982 527.406C413.019 540.003 399.463 557.143 391.994 565.348C384.015 573.667 367.056 589.861 354.334 600.712L354.251 600.783L354.169 600.855C338.757 614.275 322.613 626.044 303.876 637.47L303.797 637.518L303.719 637.566C288.597 646.967 266.782 658.964 256.042 664.023L255.887 664.096L255.732 664.172C245.564 669.162 222.996 678.25 206.129 684.301C189.704 690.193 162.532 698.303 146.335 702.158ZM319.622 336.877C317.395 353.903 313.232 377.553 310.401 389.29C307.22 401.251 299.859 424.964 293.802 441.332L293.766 441.431L293.73 441.53C286.501 461.673 278.007 480.197 267.272 499.206L267.225 499.289L267.178 499.375C258.573 514.938 245.539 535.641 238.832 544.841L238.719 544.995L238.61 545.15C232.367 554.042 217.575 571.806 206.193 584.304C195.163 596.415 176.204 614.726 164.596 624.508C153.022 634.26 131.459 649.976 117.598 658.8C103.7 667.646 79.2491 681.261 64.0568 688.282L63.9366 688.338L63.8165 688.395C58.2557 691.049 51.7864 693.951 45.2667 696.75C48.7927 684.622 52.4007 671 54.9408 660.04C59.5898 640.9 64.8395 610.246 67.0203 591.612C69.2089 572.904 70.9663 543.283 70.8506 525.522C70.7361 507.803 68.6968 478.79 66.2881 460.369C63.9547 442.528 59.6504 417.306 56.2625 404.018C53.0363 390.541 45.188 365.335 38.5515 347.451C34.8098 337.102 30.82 327.2 26.4899 317.553C35.588 298.934 44.5491 282.948 52.6769 270.604C61.4247 257.706 79.8937 234.581 93.798 219.472L93.8889 219.374L93.9776 219.275C107.673 204.015 128.528 184.051 139.438 175.296C150.865 166.124 171.507 151.175 184.531 142.863C198.346 134.342 217.09 123.485 225.728 119.118C234.453 114.706 256.209 105.006 273.732 98.5558L273.942 98.4783L274.15 98.3963C280.395 95.9483 286.344 93.8011 291.419 92.1233C292.933 96.1729 294.558 100.84 296.151 105.783C301.099 121.77 307.611 146.29 311.106 160.271C314.138 173.251 318.244 198.746 320.282 216.167L320.298 216.301L320.316 216.435C322.514 233.384 323.928 261.014 323.824 277C323.72 292.858 321.815 320.107 319.622 336.877ZM13.2302 650.261C10.4386 662.325 6.27133 677.739 2.59256 689.996C-1.10754 677.693 -5.31854 662.132 -8.13263 649.972L-8.15961 649.856L-8.18768 649.739C-12.3493 632.64 -17.0881 604.49 -19.2509 587.905C-21.1296 571.716 -22.8623 546.149 -23.1048 531.581C-23.0981 516.906 -22.0942 493.689 -20.7163 480.147C-19.3104 466.326 -16.1898 444.892 -13.7687 432.72C-10.9692 420.079 -6.42578 400.657 -3.39383 389.616C-2.27313 385.923 -0.25296 380.215 2.32532 373.438C7.43582 388.37 12.4879 405.131 14.6305 414.123L14.6721 414.301L14.7181 414.478C17.4817 425.256 21.5501 448.656 23.8083 465.924C26.0014 482.694 27.907 509.944 28.0104 525.802C28.1137 541.619 26.4775 569.475 24.4697 586.633C22.4574 603.827 17.4727 632.826 13.2863 650.026L13.2583 650.143L13.2302 650.261ZM-298.435 89.1904C-298.435 89.1904 -298.422 89.1916 -298.392 89.1957L-298.435 89.1904Z" fill="white" fill-opacity="0.6"/>
</g>
</svg>
