<svg width="24" height="25" viewBox="0 0 24 25" fill="none" xmlns="http://www.w3.org/2000/svg">
<path d="M21.9997 17.155V20.155C22.0008 20.4335 21.9438 20.7091 21.8322 20.9643C21.7206 21.2195 21.557 21.4485 21.3518 21.6368C21.1465 21.8251 20.9043 21.9684 20.6404 22.0577C20.3766 22.1469 20.0971 22.18 19.8197 22.155C16.7425 21.8206 13.7867 20.7691 11.1897 19.085C8.77352 17.5496 6.72503 15.5011 5.18969 13.085C3.49967 10.4762 2.44793 7.50595 2.11969 4.41496C2.0947 4.13843 2.12756 3.85972 2.21619 3.59658C2.30481 3.33345 2.44726 3.09165 2.63445 2.88658C2.82165 2.68151 3.04949 2.51767 3.30348 2.40548C3.55747 2.29329 3.83203 2.23522 4.10969 2.23496H7.10969C7.595 2.23018 8.06548 2.40204 8.43345 2.71849C8.80142 3.03495 9.04177 3.47441 9.10969 3.95496C9.23631 4.91503 9.47114 5.85769 9.80969 6.76496C9.94423 7.12288 9.97335 7.51187 9.8936 7.88584C9.81384 8.25981 9.62855 8.60307 9.35969 8.87496L8.08969 10.145C9.51324 12.6485 11.5861 14.7214 14.0897 16.145L15.3597 14.875C15.6316 14.6061 15.9748 14.4208 16.3488 14.3411C16.7228 14.2613 17.1118 14.2904 17.4697 14.425C18.377 14.7635 19.3196 14.9983 20.2797 15.125C20.7655 15.1935 21.2091 15.4382 21.5262 15.8125C21.8434 16.1867 22.0119 16.6645 21.9997 17.155Z" stroke="white" stroke-width="2" stroke-linecap="round" stroke-linejoin="round"/>
</svg>
