<svg width="22" height="25" viewBox="0 0 22 25" fill="none" xmlns="http://www.w3.org/2000/svg">
<path fill-rule="evenodd" clip-rule="evenodd" d="M10.9601 0.234556C11.1148 0.233384 11.3655 0.238072 11.5167 0.243932C11.6678 0.250964 11.8659 0.261511 11.9561 0.267371C12.0463 0.274403 12.2068 0.287295 12.3135 0.297843C12.4201 0.307219 12.5912 0.32597 12.6943 0.338862C12.7974 0.351754 12.9849 0.377537 13.1102 0.397461C13.2356 0.417385 13.4571 0.457232 13.6024 0.48536C13.7476 0.514659 13.9984 0.572086 14.1589 0.613106C14.3206 0.654125 14.5421 0.715068 14.651 0.747883C14.76 0.781871 14.9405 0.84047 15.0494 0.879145C15.1584 0.917821 15.3353 0.983451 15.442 1.02564C15.5486 1.06783 15.7173 1.13932 15.8169 1.18386C15.9165 1.2284 16.1145 1.3245 16.2563 1.39716C16.3981 1.46982 16.5938 1.5753 16.6899 1.63273C16.7871 1.68898 16.9242 1.77219 16.9945 1.8179C17.0648 1.86361 17.1914 1.94799 17.2757 2.00542C17.3601 2.06402 17.4937 2.16129 17.5745 2.22223C17.6554 2.28435 17.7819 2.38397 17.8557 2.44491C17.9295 2.50703 18.035 2.59727 18.0901 2.64532C18.1451 2.69454 18.26 2.80002 18.3467 2.88089C18.4322 2.96175 18.5857 3.11763 18.6876 3.22662C18.7896 3.33679 18.9396 3.50438 19.0216 3.60166C19.1036 3.69776 19.2501 3.88293 19.3473 4.01185C19.4434 4.14077 19.5934 4.35172 19.6778 4.48064C19.7633 4.60956 19.8723 4.78067 19.9215 4.86154C19.9695 4.9424 20.0492 5.08187 20.0996 5.17211C20.15 5.26235 20.2472 5.44987 20.3163 5.58816C20.3855 5.72646 20.4827 5.93273 20.5331 6.04524C20.5835 6.15775 20.662 6.34761 20.7089 6.46715C20.7557 6.58669 20.8237 6.766 20.8589 6.86562C20.894 6.96524 20.9573 7.1551 20.9995 7.28754C21.0416 7.41997 21.0932 7.58991 21.1155 7.66491C21.1366 7.74109 21.1494 7.80672 21.1436 7.81141C21.1389 7.8161 20.696 7.93681 20.1593 8.07979C19.6239 8.22278 19.1751 8.34232 19.1622 8.34701C19.1411 8.35404 19.1352 8.34232 19.1048 8.2345C19.086 8.16769 19.0251 7.97432 18.9689 7.80321C18.9126 7.6321 18.8259 7.39301 18.7779 7.26996C18.7298 7.1469 18.6584 6.97579 18.6197 6.88906C18.581 6.80234 18.499 6.62771 18.4357 6.50231C18.3725 6.37691 18.2752 6.19173 18.2178 6.09211C18.1615 5.9925 18.0678 5.83779 18.0116 5.7499C17.9553 5.66083 17.8628 5.5237 17.8065 5.44518C17.7503 5.36549 17.646 5.22719 17.5733 5.13695C17.5019 5.04671 17.3905 4.91545 17.3284 4.84396C17.2652 4.77246 17.114 4.61776 16.9933 4.49822C16.8715 4.37868 16.7039 4.22398 16.6196 4.15366C16.5352 4.08451 16.404 3.97903 16.3266 3.92161C16.2493 3.86301 16.104 3.76105 16.0044 3.69541C15.9048 3.62861 15.7548 3.53485 15.6705 3.48563C15.5861 3.43641 15.415 3.34382 15.2896 3.28053C15.1643 3.21607 14.9815 3.13052 14.8854 3.08833C14.7881 3.04731 14.6253 2.98051 14.5222 2.94183C14.419 2.90316 14.2316 2.8387 14.1062 2.80002C13.9808 2.76017 13.7641 2.69923 13.6258 2.66407C13.4875 2.63008 13.2661 2.57969 13.1337 2.55391C13.0013 2.52812 12.7821 2.49062 12.6474 2.47187C12.5126 2.45194 12.2959 2.42499 12.167 2.4121C12.0381 2.3992 11.8565 2.3828 11.7627 2.37694C11.669 2.3699 11.4112 2.36053 11.1886 2.35701C10.9378 2.35232 10.6801 2.35584 10.509 2.36404C10.3578 2.37225 10.1469 2.38631 10.0403 2.39569C9.93367 2.40506 9.77549 2.4203 9.68878 2.43085C9.60208 2.44022 9.44389 2.46132 9.33727 2.47773C9.23064 2.49413 9.04902 2.52578 8.93302 2.54805C8.81702 2.57149 8.64595 2.60782 8.55221 2.63008C8.45847 2.65235 8.32372 2.68634 8.25342 2.70626C8.18312 2.72619 8.03548 2.77072 7.92533 2.80471C7.81519 2.83987 7.65467 2.89495 7.56796 2.92777C7.48125 2.96058 7.32775 3.0227 7.22816 3.06489C7.12856 3.10825 6.95397 3.18912 6.84149 3.24537C6.729 3.30163 6.56262 3.39187 6.47239 3.44461C6.38217 3.49735 6.24273 3.5829 6.16189 3.63564C6.08104 3.68838 5.94394 3.78449 5.85724 3.84894C5.77053 3.9134 5.64633 4.01068 5.58188 4.06342C5.51744 4.11733 5.3862 4.23218 5.29012 4.32008C5.19521 4.40915 5.06515 4.53572 5.00188 4.6037C4.93977 4.67167 4.83315 4.79004 4.76753 4.8674C4.70191 4.94475 4.58357 5.09242 4.50624 5.19555C4.4289 5.29868 4.31173 5.46511 4.24611 5.56472C4.1805 5.66434 4.08207 5.82256 4.027 5.91632C3.9731 6.01008 3.88756 6.16243 3.83952 6.25619C3.79031 6.34995 3.71532 6.50231 3.67197 6.59607C3.62861 6.68983 3.56534 6.83163 3.53136 6.9125C3.49621 6.99337 3.43176 7.15627 3.38724 7.27582C3.34271 7.39536 3.27827 7.57701 3.24546 7.68015C3.21148 7.78328 3.16109 7.9497 3.1318 8.04932C3.10251 8.14894 3.04743 8.35755 3.00994 8.51225C2.97127 8.66696 2.91972 8.89901 2.89394 9.02793C2.86816 9.15684 2.83184 9.35725 2.81192 9.47328C2.79317 9.5893 2.76622 9.76041 2.75333 9.85417C2.73927 9.94793 2.71818 10.1132 2.70646 10.2233C2.69357 10.3335 2.67483 10.5093 2.66545 10.616C2.65491 10.7226 2.63967 10.923 2.6303 11.0613C2.61975 11.1996 2.60687 11.4692 2.59866 11.659C2.59046 11.87 2.58812 12.1806 2.59163 12.456C2.59632 12.7044 2.60452 13.0021 2.61155 13.1181C2.61741 13.2342 2.63147 13.4346 2.64085 13.5635C2.65139 13.6924 2.67014 13.901 2.68303 14.0264C2.69592 14.1518 2.71701 14.337 2.7299 14.4366C2.74161 14.5362 2.77091 14.7366 2.79434 14.882C2.8166 15.0273 2.85996 15.264 2.88808 15.4094C2.91737 15.5547 2.97127 15.7996 3.00994 15.9543C3.04743 16.109 3.10251 16.3176 3.1318 16.4173C3.16109 16.5169 3.21148 16.6833 3.24546 16.7864C3.27827 16.8896 3.34271 17.0712 3.38724 17.1908C3.43176 17.3103 3.49738 17.4744 3.53253 17.5564C3.56768 17.6396 3.63564 17.792 3.68368 17.8963C3.7329 18.0018 3.81843 18.1717 3.8735 18.2749C3.92857 18.378 4.00825 18.521 4.05043 18.5913C4.09262 18.6616 4.1805 18.8022 4.24611 18.9019C4.31173 19.0015 4.4289 19.1679 4.50624 19.271C4.58357 19.3742 4.69957 19.5195 4.76284 19.5945C4.82729 19.6683 4.93392 19.7891 5.00188 19.8617C5.06984 19.9344 5.20107 20.0645 5.29481 20.15C5.38855 20.2356 5.52798 20.3586 5.60532 20.4219C5.68265 20.4852 5.81505 20.5872 5.89825 20.6481C5.98144 20.7091 6.12205 20.804 6.20875 20.8602C6.29546 20.9165 6.43841 21.0021 6.52512 21.0524C6.61183 21.1028 6.74658 21.1743 6.82391 21.2142C6.90125 21.2529 7.04068 21.3185 7.13442 21.3607C7.22816 21.4017 7.37814 21.465 7.46836 21.5001C7.55858 21.5353 7.72497 21.5951 7.83746 21.6326C7.94994 21.6701 8.11164 21.7205 8.19483 21.7439C8.27802 21.7674 8.43152 21.8072 8.53463 21.8318C8.63774 21.8564 8.81702 21.8951 8.93302 21.9185C9.04902 21.9408 9.23064 21.9725 9.33727 21.9889C9.44389 22.0053 9.62785 22.0299 9.74737 22.0428C9.86689 22.0557 10.0673 22.0744 10.1926 22.0838C10.318 22.0943 10.6109 22.1049 10.8429 22.1096C11.1031 22.1131 11.3749 22.1107 11.5518 22.1025C11.71 22.0943 11.9338 22.0814 12.0498 22.0709C12.1658 22.0615 12.3509 22.0428 12.4599 22.0311C12.5689 22.0182 12.7435 21.9935 12.8466 21.9771C12.9497 21.9607 13.0997 21.9349 13.1805 21.9185C13.2614 21.9021 13.3856 21.8764 13.4559 21.8599C13.5262 21.8435 13.6691 21.8072 13.7723 21.7791C13.8754 21.7509 14.0546 21.6947 14.1706 21.656C14.2866 21.6162 14.4495 21.5564 14.5339 21.5224C14.6182 21.4873 14.7495 21.4298 14.8268 21.3947C14.9041 21.3583 15.0354 21.2927 15.1197 21.2482C15.2041 21.2036 15.34 21.1263 15.4244 21.0759C15.5088 21.0255 15.64 20.9411 15.7173 20.8884C15.7947 20.8345 15.9212 20.743 15.9985 20.6844C16.0759 20.6247 16.2048 20.5204 16.2856 20.4524C16.3665 20.3832 16.5457 20.2145 16.684 20.075C16.8234 19.9355 16.9922 19.7527 17.0589 19.6683C17.1269 19.584 17.2218 19.4574 17.2722 19.3871C17.3214 19.3167 17.3987 19.1972 17.4444 19.121C17.4901 19.046 17.564 18.9112 17.6085 18.8222C17.653 18.7343 17.7104 18.6112 17.7362 18.5503C17.762 18.4893 17.8042 18.378 17.8299 18.3042C17.8569 18.2303 17.8991 18.0932 17.9249 17.9994C17.9506 17.9057 17.9846 17.7615 18.001 17.6771C18.0174 17.5928 18.0397 17.4486 18.0514 17.3548C18.0666 17.2294 18.0713 17.1005 18.0713 16.8626C18.0713 16.6235 18.0666 16.4981 18.0502 16.3762C18.0397 16.286 18.0198 16.1571 18.0069 16.0891C17.994 16.0211 17.967 15.9028 17.9483 15.8254C17.9284 15.7481 17.892 15.6227 17.8663 15.5465C17.8417 15.4715 17.7913 15.3426 17.7561 15.2593C17.721 15.1773 17.6624 15.0578 17.6261 14.9933C17.5897 14.9288 17.5218 14.8175 17.4761 14.7472C17.4292 14.6769 17.3472 14.5632 17.2933 14.4952C17.2382 14.4272 17.1339 14.31 17.0589 14.2327C16.9851 14.1565 16.8691 14.0463 16.8012 13.9877C16.7332 13.9291 16.6196 13.8377 16.5492 13.785C16.4789 13.7323 16.3653 13.6549 16.2973 13.6115C16.2294 13.5694 16.1731 13.5354 16.172 13.5377C16.1696 13.5389 16.1555 13.6268 16.138 13.7334C16.1216 13.8401 16.0876 14.0299 16.0618 14.1553C16.036 14.2807 15.9985 14.4472 15.9798 14.5245C15.9599 14.6019 15.9212 14.7437 15.8931 14.841C15.865 14.9371 15.8134 15.0988 15.7782 15.1984C15.7419 15.298 15.6833 15.4516 15.647 15.5383C15.6107 15.625 15.5287 15.7996 15.4642 15.925C15.401 16.0504 15.3002 16.2297 15.2416 16.3235C15.183 16.4173 15.0893 16.5556 15.0342 16.6329C14.978 16.7091 14.8877 16.8251 14.8327 16.8907C14.7776 16.9552 14.6721 17.0712 14.5983 17.1486C14.5245 17.2248 14.4085 17.3349 14.3405 17.3935C14.2726 17.4521 14.1542 17.5471 14.0769 17.6045C13.9996 17.6619 13.873 17.7486 13.7957 17.7979C13.7184 17.8471 13.5602 17.935 13.4442 17.9947C13.3282 18.0533 13.1512 18.133 13.0516 18.1717C12.952 18.2116 12.8091 18.262 12.7353 18.2854C12.6615 18.3077 12.5291 18.3452 12.4423 18.3674C12.3556 18.3897 12.1975 18.4237 12.0908 18.4436C11.9842 18.4624 11.8026 18.4893 11.6866 18.5022C11.5706 18.5163 11.362 18.5315 11.2237 18.5385C11.0515 18.5468 10.8945 18.5468 10.7258 18.5385C10.591 18.5315 10.4082 18.5186 10.3215 18.5081C10.2348 18.4987 10.1001 18.4799 10.0227 18.4671C9.94539 18.4542 9.82119 18.4307 9.74737 18.4143C9.67355 18.3979 9.5306 18.3616 9.431 18.3335C9.33141 18.3053 9.18846 18.2608 9.11464 18.2338C9.04082 18.2069 8.91076 18.1565 8.82756 18.1202C8.74437 18.085 8.62837 18.0311 8.56979 18.003C8.5112 17.9737 8.40926 17.9174 8.3413 17.8787C8.27334 17.84 8.14913 17.7615 8.06594 17.7053C7.98275 17.649 7.85503 17.5564 7.78473 17.5002C7.71442 17.4427 7.57382 17.315 7.47422 17.2142C7.37345 17.1146 7.25159 16.9822 7.20355 16.9212C7.15434 16.8603 7.07466 16.7513 7.02662 16.681C6.97858 16.6106 6.91765 16.5145 6.89187 16.47C6.86492 16.4255 6.81219 16.3247 6.77353 16.2473C6.73486 16.17 6.68213 16.054 6.65635 15.9895C6.63058 15.925 6.59074 15.8137 6.56847 15.7434C6.54621 15.6731 6.51575 15.5723 6.50286 15.5207C6.48997 15.4691 6.46888 15.3719 6.45599 15.3039C6.44193 15.2359 6.42318 15.1199 6.41381 15.046C6.40326 14.9722 6.39272 14.7976 6.38803 14.6593C6.38451 14.5046 6.38686 14.344 6.39506 14.2432C6.40209 14.153 6.41732 14.0241 6.4267 13.9561C6.43607 13.8881 6.45833 13.7721 6.47474 13.6983C6.49114 13.6244 6.52278 13.5025 6.54504 13.4287C6.5673 13.3549 6.60949 13.233 6.63878 13.1592C6.66807 13.0853 6.71963 12.9658 6.75361 12.8955C6.78876 12.8251 6.85438 12.7044 6.8989 12.6283C6.9446 12.5532 7.02076 12.4372 7.06646 12.3728C7.11333 12.3071 7.20004 12.197 7.25862 12.129C7.31721 12.061 7.4379 11.9333 7.52812 11.8465C7.61834 11.7598 7.75426 11.6391 7.8316 11.5793C7.90893 11.5196 8.03782 11.427 8.11867 11.3731C8.19952 11.3191 8.33895 11.2336 8.42918 11.1832C8.5194 11.1328 8.66938 11.0566 8.76312 11.0133C8.85686 10.9711 8.9834 10.916 9.04433 10.8914C9.10526 10.8668 9.25525 10.814 9.37828 10.7742C9.50131 10.7332 9.69816 10.6757 9.81767 10.6464C9.93719 10.6171 10.1059 10.5796 10.1926 10.5644C10.2793 10.548 10.4059 10.5281 10.4738 10.5175C10.5418 10.5081 10.6683 10.4917 10.7551 10.4824C10.8418 10.473 11.0035 10.4577 11.1124 10.4495C11.2413 10.4402 11.5565 10.4343 12.0088 10.4343C12.4693 10.4343 12.7716 10.439 12.8993 10.4495C13.0059 10.4577 13.2004 10.4753 13.3329 10.4882C13.4653 10.4999 13.6844 10.5269 13.8191 10.5456C13.9539 10.5656 14.0746 10.5843 14.0863 10.5867C14.0996 10.5906 14.1062 10.5855 14.1062 10.5714C14.1062 10.5609 14.0933 10.4859 14.0769 10.405C14.0605 10.3241 14.0289 10.1894 14.0066 10.1061C13.9855 10.0229 13.9457 9.89285 13.9199 9.81901C13.8953 9.74518 13.8472 9.62095 13.8133 9.5436C13.7805 9.46625 13.7242 9.35022 13.6879 9.28576C13.6516 9.2213 13.593 9.12403 13.5555 9.06895C13.5192 9.01386 13.4489 8.92245 13.4008 8.86385C13.3528 8.80525 13.2696 8.71618 13.2145 8.66578C13.1606 8.61539 13.0868 8.55093 13.0516 8.52397C13.0165 8.49702 12.9427 8.44545 12.8876 8.40912C12.8325 8.37396 12.7118 8.30716 12.6181 8.26145C12.5244 8.21692 12.3767 8.15597 12.29 8.12667C12.2033 8.09855 12.0686 8.06104 11.9912 8.04346C11.9139 8.02588 11.7827 8.00244 11.6983 7.99072C11.6139 7.97783 11.4722 7.9626 11.3819 7.95556C11.2917 7.9497 11.1417 7.94384 11.048 7.94384C10.9542 7.94384 10.8066 7.9497 10.7199 7.95674C10.6332 7.9626 10.5102 7.97666 10.4469 7.98604C10.3848 7.99541 10.2735 8.01534 10.202 8.03057C10.1294 8.04698 10.0227 8.07393 9.96414 8.09034C9.90555 8.10792 9.8083 8.13956 9.74737 8.16183C9.68644 8.18527 9.56224 8.23918 9.47201 8.28372C9.38179 8.32825 9.2447 8.4056 9.16737 8.45717C9.09003 8.50874 8.96817 8.60133 8.89787 8.6611C8.82756 8.72204 8.72797 8.81697 8.67758 8.87088C8.6272 8.92479 8.54049 9.03027 8.48542 9.1041C8.42918 9.17794 8.37997 9.24474 8.37528 9.2506C8.36942 9.25763 8.02962 9.03027 7.53163 8.68805C7.07232 8.37162 6.68565 8.10558 6.67276 8.0962C6.65167 8.07862 6.65167 8.07628 6.70088 8.00244C6.729 7.96025 6.79931 7.86298 6.85789 7.7868C6.91648 7.70945 7.02076 7.58287 7.08989 7.50552C7.15785 7.427 7.26331 7.31566 7.32424 7.25706C7.384 7.19846 7.48359 7.10588 7.54452 7.05314C7.60545 6.99923 7.72731 6.90313 7.81402 6.83749C7.90073 6.77186 8.03548 6.67928 8.11281 6.63005C8.19015 6.58083 8.32724 6.50114 8.41746 6.45191C8.50768 6.40269 8.65532 6.3312 8.74554 6.29135C8.83577 6.2515 8.97052 6.19525 9.04433 6.16829C9.11815 6.14017 9.25056 6.0968 9.33727 6.07102C9.42397 6.04406 9.54818 6.01008 9.61262 5.99367C9.67707 5.97843 9.79893 5.95148 9.88212 5.93507C9.96531 5.91983 10.0708 5.89991 10.1165 5.89288C10.1622 5.88702 10.2676 5.87295 10.3508 5.86358C10.434 5.8542 10.6215 5.84014 10.7668 5.83311C10.9671 5.82256 11.0995 5.82256 11.3175 5.83311C11.4757 5.84014 11.6784 5.8542 11.7686 5.86358C11.8588 5.87295 12.0276 5.89639 12.1436 5.91632C12.2596 5.93507 12.4306 5.97023 12.5244 5.9925C12.6181 6.01594 12.7657 6.05578 12.8524 6.08157C12.9392 6.10852 13.0973 6.16361 13.204 6.2058C13.3106 6.24799 13.4817 6.32417 13.5848 6.37573C13.6879 6.4273 13.8332 6.507 13.907 6.55153C13.9808 6.59724 14.0839 6.66404 14.1355 6.70037C14.187 6.73553 14.2925 6.8164 14.3698 6.87851C14.4472 6.93946 14.5761 7.05314 14.6557 7.13049C14.7354 7.20667 14.8514 7.32855 14.9123 7.39887C14.9733 7.46919 15.0612 7.57819 15.108 7.63913C15.1537 7.70007 15.2287 7.80555 15.2744 7.87353C15.3201 7.9415 15.3951 8.06221 15.4408 8.14308C15.4877 8.22395 15.5591 8.35873 15.6001 8.44194C15.64 8.52515 15.7009 8.65758 15.7326 8.73493C15.7654 8.81228 15.8157 8.9412 15.8439 9.02207C15.8732 9.10293 15.9165 9.23185 15.9399 9.3092C15.9634 9.38655 16.0009 9.52133 16.0231 9.60806C16.0454 9.69478 16.0852 9.86941 16.1098 9.99481C16.1345 10.1202 16.1684 10.3183 16.1848 10.4343C16.2012 10.5503 16.2223 10.7425 16.2329 10.8621C16.2423 10.9816 16.2551 11.1105 16.268 11.2172L16.4028 11.277C16.4766 11.3098 16.6278 11.3824 16.7367 11.4375C16.8457 11.4938 17.0156 11.5852 17.1117 11.6414C17.2089 11.6977 17.3695 11.7973 17.4691 11.8641C17.5686 11.9309 17.7139 12.0317 17.7913 12.0903C17.8686 12.1477 17.9998 12.252 18.0842 12.3224C18.1686 12.3915 18.3396 12.5521 18.465 12.6786C18.5916 12.804 18.7451 12.9681 18.8072 13.042C18.8681 13.1158 18.963 13.2353 19.0157 13.3057C19.0685 13.376 19.1563 13.5002 19.2091 13.5811C19.2618 13.6619 19.3368 13.7827 19.3755 13.8506C19.4141 13.9186 19.4856 14.0522 19.5348 14.1495C19.5828 14.2456 19.6485 14.3886 19.6813 14.4659C19.7129 14.5433 19.7633 14.6722 19.7926 14.7531C19.8219 14.8339 19.8687 14.9816 19.898 15.0812C19.9273 15.1808 19.9695 15.3472 19.993 15.4504C20.0164 15.5535 20.048 15.7141 20.0633 15.8078C20.0797 15.9016 20.1008 16.0516 20.1101 16.1418C20.1207 16.2321 20.1336 16.3844 20.1406 16.4817C20.1464 16.5778 20.1523 16.7607 20.1523 16.8861C20.1523 17.0115 20.1464 17.1908 20.1406 17.2845C20.1336 17.3783 20.123 17.5049 20.1172 17.5658C20.1101 17.6267 20.0961 17.7357 20.0867 17.8061C20.0761 17.8764 20.0527 18.017 20.034 18.1166C20.014 18.2163 19.9754 18.3909 19.9461 18.5034C19.9168 18.6159 19.8594 18.8081 19.8184 18.9312C19.7774 19.0542 19.7094 19.2359 19.6684 19.3355C19.6262 19.4351 19.5618 19.5828 19.5231 19.6637C19.4856 19.7445 19.4176 19.8758 19.3731 19.9566C19.3298 20.0375 19.2618 20.1559 19.2231 20.2203C19.1833 20.2848 19.106 20.4055 19.0509 20.4899C18.9946 20.5743 18.9009 20.7067 18.8411 20.7852C18.7826 20.8649 18.6677 21.0103 18.5857 21.1075C18.5025 21.206 18.3361 21.3888 18.2131 21.5142C18.0901 21.6384 17.9167 21.8084 17.8264 21.8904C17.7362 21.9736 17.5909 22.099 17.5042 22.1717C17.4175 22.2432 17.2617 22.3662 17.1585 22.4436C17.0554 22.5221 16.889 22.6393 16.7894 22.7049C16.6899 22.7717 16.5176 22.8796 16.4086 22.944C16.2997 23.0097 16.0958 23.121 15.9575 23.1901C15.8193 23.2605 15.64 23.3472 15.5591 23.3823C15.4783 23.4175 15.3307 23.4796 15.2311 23.5195C15.1315 23.5593 14.9334 23.6308 14.7917 23.6777C14.6499 23.7246 14.4472 23.7879 14.3405 23.8172C14.2339 23.8464 14.057 23.891 13.948 23.9168C13.839 23.9426 13.6516 23.9824 13.532 24.0047C13.4125 24.0281 13.2309 24.0597 13.1278 24.0762C13.0247 24.0914 12.8536 24.1148 12.747 24.1277C12.6404 24.1406 12.4669 24.1594 12.3603 24.1687C12.2537 24.1793 12.0885 24.1922 11.9912 24.1992C11.8951 24.2051 11.6866 24.2156 11.5284 24.2227C11.3702 24.2285 11.1382 24.2344 11.0128 24.2344C10.8875 24.2344 10.6601 24.2285 10.509 24.2227C10.3578 24.2156 10.1258 24.2027 9.99343 24.1934C9.86103 24.1828 9.65598 24.1641 9.53646 24.1512C9.41694 24.1383 9.21423 24.1125 9.08534 24.0937C8.95645 24.075 8.76195 24.0433 8.65181 24.0234C8.54166 24.0035 8.34481 23.9636 8.21241 23.9332C8.08 23.9039 7.86675 23.8511 7.73786 23.816C7.60897 23.7808 7.41095 23.7234 7.29846 23.6871C7.18598 23.6519 6.98795 23.5839 6.85906 23.5359C6.73017 23.4867 6.5427 23.4128 6.4431 23.3706C6.3435 23.3284 6.16189 23.2452 6.03885 23.1866C5.91582 23.1269 5.73186 23.0319 5.62875 22.9745C5.52564 22.9182 5.38034 22.8339 5.30652 22.7893C5.23271 22.7436 5.09561 22.6557 5.00188 22.5936C4.90814 22.5315 4.78159 22.4448 4.72066 22.4002C4.65973 22.3557 4.54842 22.2725 4.4746 22.2151C4.40078 22.1565 4.27658 22.0557 4.19924 21.99C4.12191 21.9244 3.98013 21.7967 3.88288 21.7064C3.78679 21.6162 3.65673 21.4896 3.5958 21.4263C3.53487 21.3619 3.43645 21.2575 3.37903 21.1931C3.32045 21.1286 3.21968 21.0126 3.15641 20.9352C3.09196 20.8579 2.99354 20.736 2.93964 20.6657C2.88456 20.5954 2.79903 20.4817 2.75099 20.4137C2.70178 20.3457 2.60921 20.211 2.54476 20.1149C2.48032 20.0176 2.38307 19.8652 2.32799 19.775C2.2741 19.6847 2.18622 19.5336 2.13349 19.4375C2.08076 19.3425 1.98702 19.1632 1.92492 19.039C1.86282 18.9159 1.76674 18.7143 1.71284 18.5913C1.65777 18.4682 1.57457 18.2713 1.5277 18.1518C1.48084 18.0323 1.40702 17.8377 1.36601 17.7182C1.32382 17.5986 1.25821 17.3982 1.21954 17.2728C1.18087 17.1474 1.12463 16.9575 1.09534 16.8509C1.06604 16.7442 1.01566 16.5462 0.982852 16.4114C0.950043 16.2766 0.894972 16.0223 0.85982 15.8489C0.824669 15.6754 0.780143 15.4351 0.761395 15.3156C0.741476 15.1961 0.709839 14.9851 0.691092 14.8468C0.671172 14.7085 0.643051 14.4706 0.626647 14.3194C0.610243 14.1682 0.586808 13.9069 0.573919 13.7393C0.56103 13.5717 0.543454 13.3162 0.535252 13.1709C0.52705 13.0162 0.52002 12.6294 0.52002 12.2333C0.52002 11.8372 0.52705 11.4504 0.535252 11.2957C0.543454 11.1504 0.56103 10.8949 0.573919 10.7273C0.586808 10.5597 0.607899 10.323 0.620788 10.1999C0.632505 10.0768 0.659455 9.85534 0.679374 9.70767C0.698122 9.56001 0.735617 9.3092 0.761395 9.15098C0.787173 8.99277 0.835214 8.73493 0.866851 8.57671C0.899659 8.4185 0.952387 8.18176 0.984023 8.04932C1.01566 7.91689 1.06604 7.72234 1.09534 7.61569C1.12463 7.50904 1.18087 7.31918 1.21954 7.19378C1.25821 7.06837 1.32382 6.86797 1.36601 6.74842C1.40702 6.62888 1.48084 6.43433 1.5277 6.31479C1.57457 6.19525 1.65777 5.99718 1.71284 5.8753C1.76674 5.75341 1.86516 5.5448 1.93195 5.41237C1.99757 5.27993 2.09131 5.10062 2.14052 5.01389C2.18856 4.92717 2.2741 4.78184 2.32799 4.6916C2.38307 4.60136 2.48032 4.44783 2.54476 4.35172C2.60921 4.25445 2.70178 4.12084 2.75099 4.05287C2.79903 3.98489 2.88456 3.87238 2.93964 3.80089C2.99354 3.7294 3.10251 3.5958 3.18101 3.50204C3.25952 3.40828 3.39895 3.25006 3.49269 3.15044C3.58526 3.05083 3.73758 2.8973 3.83132 2.8094C3.92389 2.7215 4.05278 2.60313 4.11722 2.54687C4.18167 2.49062 4.31407 2.38045 4.41015 2.3031C4.50741 2.22575 4.67262 2.10035 4.77925 2.02534C4.88587 1.94916 5.04171 1.84369 5.12491 1.79095C5.2081 1.73704 5.35339 1.64914 5.44713 1.59405C5.54087 1.53897 5.71663 1.44287 5.83966 1.37958C5.96269 1.31629 6.149 1.22605 6.25562 1.178C6.36225 1.12995 6.54856 1.05143 6.67159 1.0022C6.79462 0.954152 6.97858 0.885005 7.08169 0.849846C7.1848 0.814686 7.35822 0.759603 7.46836 0.726788C7.5785 0.693972 7.74958 0.645921 7.84917 0.620137C7.94877 0.594354 8.12804 0.550991 8.24756 0.525207C8.36708 0.498251 8.56393 0.459576 8.68696 0.437308C8.80999 0.416213 9.00215 0.384569 9.11464 0.368162C9.22712 0.351754 9.41694 0.328314 9.53646 0.315422C9.65598 0.302531 9.86454 0.283779 9.99929 0.273231C10.134 0.262683 10.3426 0.249792 10.4621 0.245104C10.5816 0.240416 10.8054 0.234556 10.9601 0.234556ZM11.3175 12.5614C11.1921 12.5685 11.021 12.5825 10.9367 12.5919C10.8535 12.6013 10.7211 12.6189 10.6437 12.6318C10.5664 12.6447 10.434 12.6704 10.3508 12.6892C10.2676 12.7079 10.1364 12.7431 10.0614 12.7654C9.98523 12.7888 9.87392 12.8263 9.81533 12.8498C9.75557 12.8732 9.64074 12.9248 9.55989 12.9658C9.47904 13.0056 9.3689 13.0666 9.31383 13.1029C9.25876 13.1381 9.18025 13.1943 9.13807 13.2283C9.09589 13.2611 9.01738 13.3314 8.96466 13.3854C8.91076 13.4381 8.83811 13.519 8.80413 13.5635C8.76898 13.608 8.71391 13.6901 8.6811 13.7451C8.64829 13.8002 8.60142 13.8975 8.57564 13.962C8.55104 14.0264 8.5194 14.1237 8.50651 14.1788C8.49245 14.2339 8.47605 14.3335 8.46902 14.4015C8.46199 14.4694 8.45847 14.5796 8.46199 14.6476C8.46667 14.7155 8.47722 14.8152 8.48776 14.8702C8.49831 14.9253 8.5194 15.0121 8.5358 15.0636C8.55221 15.1152 8.58853 15.2054 8.61548 15.2629C8.64243 15.3215 8.68813 15.4023 8.71625 15.4445C8.74437 15.4867 8.79944 15.5605 8.83928 15.6086C8.87912 15.6566 8.94825 15.7281 8.99278 15.7668C9.0373 15.8055 9.09706 15.8571 9.12636 15.8793C9.15565 15.9028 9.21775 15.9461 9.26462 15.9766C9.31032 16.0059 9.3982 16.0563 9.45795 16.0868C9.51654 16.1184 9.61848 16.1653 9.68293 16.1922C9.74737 16.218 9.86572 16.259 9.94656 16.2825C10.0274 16.3071 10.154 16.3387 10.2278 16.354C10.3016 16.368 10.4317 16.3903 10.5149 16.4009C10.6238 16.4161 10.7515 16.422 10.966 16.422C11.1359 16.422 11.3233 16.4161 11.3995 16.4067C11.4733 16.3985 11.5846 16.3844 11.6456 16.3751C11.7065 16.3645 11.7944 16.3493 11.8389 16.3399C11.8834 16.3305 11.9713 16.3094 12.0322 16.2919C12.0932 16.2755 12.2021 16.2391 12.2724 16.2122C12.3427 16.1852 12.4517 16.1372 12.5126 16.1067C12.5736 16.0762 12.6685 16.0223 12.7236 15.986C12.7786 15.9508 12.8548 15.8981 12.8935 15.8676C12.9321 15.8383 13.013 15.7668 13.0739 15.7082C13.1348 15.6508 13.2239 15.5559 13.2719 15.4973C13.3211 15.4398 13.402 15.3285 13.4524 15.2511C13.5039 15.1738 13.5836 15.0343 13.6305 14.9406C13.6785 14.8468 13.7406 14.7097 13.7699 14.6359C13.7992 14.562 13.8437 14.4354 13.8695 14.3546C13.8953 14.2737 13.9363 14.1366 13.9586 14.0499C13.982 13.9631 14.016 13.8131 14.0347 13.7158C14.0535 13.6197 14.0828 13.4475 14.0992 13.335C14.1156 13.2224 14.1367 13.0478 14.146 12.9482C14.1566 12.8486 14.1636 12.7654 14.1613 12.7642C14.1601 12.763 14.0956 12.749 14.0183 12.7326C13.941 12.7173 13.7957 12.6904 13.6961 12.674C13.5965 12.6575 13.4278 12.6329 13.3211 12.62C13.2145 12.6072 13.0306 12.5896 12.911 12.579C12.7915 12.5697 12.5595 12.5568 12.3955 12.5497C12.2314 12.5439 12.0252 12.5392 11.9385 12.5404C11.8518 12.5415 11.7276 12.5439 11.6631 12.5462C11.5987 12.5474 11.4429 12.5544 11.3175 12.5614Z" fill="white"/>
</svg>
