<svg width="22" height="25" viewBox="0 0 22 25" fill="none" xmlns="http://www.w3.org/2000/svg">
<g clip-path="url(#clip0_103_1385)">
<path d="M18.3893 5.04399C17.0944 4.20119 16.1605 2.85211 15.8687 1.28028C15.806 0.94075 15.7711 0.590987 15.7711 0.233398H11.639L11.6324 16.7692C11.563 18.6209 10.0366 20.1073 8.16587 20.1073C7.5841 20.1073 7.03669 19.9622 6.5544 19.7088C5.44873 19.1278 4.69213 17.9708 4.69213 16.6391C4.69213 14.7266 6.25055 13.1704 8.16527 13.1704C8.52277 13.1704 8.8658 13.2294 9.19014 13.3305V9.11834C8.85435 9.07259 8.51312 9.04429 8.16527 9.04429C3.9717 9.04429 0.560059 12.451 0.560059 16.6391C0.560059 19.2085 1.84538 21.4823 3.80712 22.8572C5.0424 23.7235 6.54535 24.2334 8.16587 24.2334C12.3594 24.2334 15.7711 20.8267 15.7711 16.6391V8.25387C17.3916 9.41513 19.3774 10.0996 21.52 10.0996V5.97348C20.3661 5.97348 19.2912 5.63095 18.3893 5.04399Z" fill="white"/>
</g>
<defs>
<clipPath id="clip0_103_1385">
<rect width="20.96" height="24" fill="white" transform="translate(0.560059 0.234375)"/>
</clipPath>
</defs>
</svg>
