<svg width="25" height="25" viewBox="0 0 25 25" fill="none" xmlns="http://www.w3.org/2000/svg">
<g clip-path="url(#clip0_103_1388)">
<path d="M24.52 12.2327C24.52 5.60527 19.1474 0.232693 12.52 0.232693C5.89259 0.232693 0.52002 5.60527 0.52002 12.2327C0.52002 18.2222 4.90824 23.1867 10.645 24.0869V15.7014H7.59814V12.2327H10.645V9.58894C10.645 6.58144 12.4365 4.92019 15.1776 4.92019C16.4905 4.92019 17.8638 5.15457 17.8638 5.15457V8.10769H16.3506C14.8599 8.10769 14.395 9.0327 14.395 9.98168V12.2327H17.7231L17.1911 15.7014H14.395V24.0869C20.1318 23.1867 24.52 18.2222 24.52 12.2327Z" fill="white"/>
</g>
<defs>
<clipPath id="clip0_103_1388">
<rect width="24" height="24" fill="white" transform="translate(0.52002 0.234375)"/>
</clipPath>
</defs>
</svg>
