<svg width="25" height="25" viewBox="0 0 25 25" fill="none" xmlns="http://www.w3.org/2000/svg">
<g clip-path="url(#clip0_103_1383)">
<path d="M7.59015 0.317324C6.31335 0.377564 5.44143 0.581324 4.67919 0.880844C3.89032 1.18828 3.22168 1.60084 2.5564 2.26852C1.89112 2.9362 1.48144 3.60532 1.17616 4.3954C0.880718 5.15932 0.680558 6.03196 0.624158 7.30948C0.567758 8.587 0.555278 8.99764 0.561518 12.2564C0.567758 15.5151 0.582158 15.9236 0.644078 17.2037C0.705038 18.4803 0.908078 19.352 1.2076 20.1144C1.51552 20.9033 1.9276 21.5717 2.59552 22.2372C3.26344 22.9028 3.93208 23.3115 4.72407 23.6172C5.48727 23.9122 6.36015 24.1133 7.63743 24.1692C8.91471 24.2252 9.32583 24.2381 12.5836 24.2319C15.8413 24.2256 16.2515 24.2112 17.5314 24.1505C18.8113 24.0898 19.6785 23.8853 20.4412 23.5872C21.2301 23.2786 21.8989 22.8672 22.564 22.1991C23.229 21.5309 23.6385 20.8613 23.9435 20.0708C24.2392 19.3076 24.4401 18.4347 24.4955 17.1584C24.5514 15.8775 24.5646 15.4685 24.5584 12.2103C24.5521 8.95204 24.5375 8.54356 24.4768 7.26388C24.4161 5.9842 24.2128 5.11516 23.9135 4.3522C23.6051 3.56332 23.1935 2.8954 22.5258 2.2294C21.8581 1.5634 21.1881 1.1542 20.3977 0.849884C19.6341 0.554444 18.7617 0.353084 17.4844 0.297884C16.2071 0.242684 15.796 0.228524 12.537 0.234764C9.27807 0.241004 8.87007 0.254924 7.59015 0.317324ZM7.73031 22.0104C6.56031 21.9596 5.92503 21.7652 5.50167 21.6024C4.94103 21.3864 4.54168 21.1253 4.11976 20.7075C3.69784 20.2896 3.43864 19.8888 3.21976 19.3294C3.05536 18.906 2.85736 18.2715 2.80264 17.1015C2.74312 15.8369 2.73064 15.4572 2.72368 12.2535C2.71672 9.04972 2.72896 8.67052 2.7844 7.40548C2.83432 6.23644 3.02992 5.60044 3.1924 5.17732C3.4084 4.61596 3.66856 4.21732 4.08736 3.79564C4.50616 3.37396 4.90575 3.11428 5.46567 2.8954C5.88855 2.73028 6.52311 2.53396 7.69263 2.47828C8.95815 2.41828 9.33735 2.40628 12.5406 2.39932C15.7439 2.39236 16.1241 2.40436 17.3901 2.46004C18.5591 2.51092 19.1953 2.7046 19.618 2.86804C20.1789 3.08404 20.578 3.34348 20.9997 3.763C21.4213 4.18252 21.6813 4.58068 21.9001 5.1418C22.0655 5.56348 22.2618 6.1978 22.317 7.36804C22.3773 8.63356 22.3909 9.013 22.3967 12.216C22.4025 15.4191 22.3912 15.7995 22.3357 17.064C22.2846 18.234 22.0907 18.8696 21.9277 19.2934C21.7117 19.8538 21.4513 20.2534 21.0323 20.6748C20.6133 21.0963 20.2141 21.356 19.654 21.5748C19.2316 21.7397 18.5963 21.9365 17.4277 21.9922C16.1622 22.0517 15.783 22.0642 12.5785 22.0712C9.37407 22.0781 8.99607 22.0652 7.73055 22.0104M17.5129 5.8198C17.5134 6.10463 17.5984 6.38292 17.757 6.61947C17.9156 6.85602 18.1409 7.04021 18.4042 7.14875C18.6675 7.25729 18.9571 7.28529 19.2364 7.22923C19.5157 7.17316 19.772 7.03554 19.973 6.83377C20.1741 6.632 20.3108 6.37514 20.3658 6.09568C20.4208 5.81623 20.3918 5.52672 20.2823 5.26379C20.1728 5.00085 19.9878 4.7763 19.7506 4.61852C19.5135 4.46074 19.2349 4.37683 18.9501 4.3774C18.5682 4.37817 18.2023 4.53055 17.9328 4.80104C17.6633 5.07152 17.5123 5.43797 17.5129 5.8198ZM6.39855 12.2453C6.40527 15.6485 9.16911 18.4011 12.5716 18.3946C15.9741 18.3881 18.7285 15.6245 18.7221 12.2213C18.7156 8.81812 15.951 6.06484 12.5481 6.07156C9.14511 6.07828 6.39207 8.8426 6.39855 12.2453ZM8.55999 12.241C8.55843 11.4499 8.7915 10.676 9.22973 10.0174C9.66796 9.35867 10.2917 8.84474 11.022 8.54054C11.7523 8.23633 12.5564 8.15553 13.3327 8.30834C14.1089 8.46114 14.8224 8.8407 15.3829 9.39901C15.9435 9.95732 16.3258 10.6693 16.4817 11.4449C16.6376 12.2206 16.56 13.025 16.2587 13.7565C15.9574 14.488 15.4459 15.1138 14.789 15.5546C14.132 15.9955 13.3591 16.2316 12.568 16.2332C12.0427 16.2343 11.5223 16.1319 11.0365 15.9318C10.5508 15.7318 10.1092 15.438 9.73705 15.0673C9.36485 14.6966 9.06934 14.2562 8.86738 13.7712C8.66542 13.2863 8.56097 12.7663 8.55999 12.241Z" fill="white"/>
</g>
<defs>
<clipPath id="clip0_103_1383">
<rect width="24" height="24" fill="white" transform="translate(0.560059 0.234375)"/>
</clipPath>
</defs>
</svg>
