<svg width="393" height="666" viewBox="0 0 393 666" fill="none" xmlns="http://www.w3.org/2000/svg">
<g opacity="0.5">
<path d="M285.837 581.924C282.695 575.271 280.108 568.433 280.108 566.769V566.585C280.108 564.921 280.662 563.443 281.402 563.443C282.325 563.443 292.859 565.107 305.057 567.14C317.255 568.988 336.845 571.575 348.488 572.683C360.132 573.608 379.352 574.532 390.995 574.532C402.639 574.532 421.859 573.608 433.503 572.683C445.146 571.575 464.736 568.988 476.933 567.14C489.131 565.107 499.666 563.443 500.405 563.443C501.329 563.443 501.883 564.921 501.883 566.585C501.883 568.433 499.111 575.271 495.785 581.739C492.458 588.763 484.326 599.666 476.749 607.613C469.541 615.375 456.974 626.28 449.027 632.194C440.895 637.923 424.631 647.718 390.995 665.09L373.808 656.589C364.567 651.784 349.782 643.467 341.096 637.923C332.41 632.194 317.809 620.181 308.568 610.755C296.556 598.743 290.087 590.426 285.837 581.924Z" fill="url(#paint0_linear_103_1426)"/>
<path d="M89.2682 507.377C93.8891 504.975 102.205 501.648 107.75 499.8C113.295 497.952 119.393 496.473 121.241 496.473C122.904 496.288 130.852 500.169 138.799 504.79C146.561 509.595 159.312 516.434 166.89 520.315C174.467 524.196 187.774 530.11 196.46 533.621C205.146 537.317 221.594 543.416 233.053 547.297C251.349 553.581 254.122 555.06 255.045 559.125C255.601 561.713 256.894 567.072 257.818 571.138C258.927 575.204 262.069 583.151 265.026 588.695C267.798 594.24 271.864 601.632 277.778 610.873L271.864 613.461C268.537 614.754 257.078 618.081 246.36 620.668C235.64 623.44 219.377 626.582 210.321 627.691C200.156 628.984 182.784 629.354 165.966 628.799C149.333 628.06 131.221 626.212 120.686 623.995C111.076 621.962 96.4762 618.081 88.3446 615.308C80.2125 612.536 65.6123 606.807 56.002 602.187C46.3917 597.751 30.4978 588.695 20.8875 582.412C11.2773 575.943 2.22137 569.29 1.11249 567.627C-0.920453 565.039 -0.366016 564.115 4.43913 561.528C7.76576 559.68 26.2471 547.667 45.6524 534.914C65.0578 521.978 84.6481 509.595 89.2682 507.377Z" fill="url(#paint1_linear_103_1426)"/>
<path fill-rule="evenodd" clip-rule="evenodd" d="M313.605 110.655L313.508 110.574C314.259 109.034 315.116 107.349 316.168 105.279L316.448 104.729C321.344 95.1021 330.695 78.7363 336.946 69.1212C343.666 59.1157 353.006 45.982 357.516 40.3263C362.072 34.6134 373.824 21.2132 383.718 11.2859L383.832 11.1715L383.944 11.0547C387.568 7.27067 391.08 3.79745 394.093 0.974609C396.314 3.00209 398.788 5.36748 401.327 7.9128C409.619 16.4372 421.629 29.8829 428.341 37.6331C434.375 44.8403 445.041 59.6707 451.817 70.0683L451.877 70.1586L451.937 70.2481C458.645 80.2473 468.155 97.324 473.025 107.487C473.457 108.388 473.861 109.221 474.24 109.993C464.184 118.454 449.031 133.152 438.718 144.633C427.32 157.029 412.333 175.746 404.717 186.994L404.661 187.076L404.606 187.16C400.98 192.661 397.254 198.852 393.493 205.604C387.262 195.053 380.046 183.708 375.615 177.287L375.517 177.145L375.415 177.004C369.292 168.526 357.088 153.856 348.064 143.947C338.846 133.826 323.52 119.011 313.605 110.655ZM370.543 230.555C372.441 233.9 374.255 237.249 375.992 240.623C368.665 256.882 360.977 276.523 358.217 285.718L358.165 285.893L358.116 286.068C355.582 295.26 351.944 310.862 349.8 320.555L349.764 320.715L349.732 320.876C347.665 331.21 345.149 348.552 343.996 359.89C342.819 371.457 342.028 390.193 342.028 402.106V402.235L342.03 402.364C342.224 414.532 343.624 435.089 345.166 448.326L345.178 448.434L345.193 448.541C346.903 461.702 350.663 484.215 354.179 498.695C356.132 507.117 358.919 517.62 361.624 526.895C356.656 524.764 351.719 522.551 347.481 520.528L347.392 520.485L347.301 520.443C335.914 515.181 318.058 505.151 307.815 498.837C297.948 492.54 282.92 481.81 274.714 475.24C266.549 468.448 254.084 457.074 247.196 449.959C240.152 442.681 229.648 430.788 223.99 423.634C218.225 415.996 209.494 404.124 204.741 397.097C200.448 390.357 190.643 371.916 183.324 355.956C174.695 337.147 168.175 320.012 164.244 306.342C161.083 294.774 156.72 272.296 154.723 256.426L154.711 256.331L154.698 256.237C152.521 240.438 151.036 217.887 151.21 206.804C151.391 195.253 152.626 175.173 154.038 162.997C155.693 150.285 158.341 133.306 159.932 125.719C161.537 118.067 166.242 99.7179 170.802 85.561L170.849 85.4147L170.894 85.2675C172.531 79.8313 174.208 74.7522 175.715 70.5675C178.469 71.4379 181.549 72.4894 184.756 73.6685C195.929 77.9427 212.599 85.1866 222.026 89.4635C230.587 93.5293 246.661 102.722 257.306 109.499L257.4 109.559L257.495 109.617C267.899 116.041 283.932 127.928 292.773 135.376C301.532 142.758 315.839 156.577 324.163 165.716C332.624 175.006 343.882 188.585 349.107 195.794C354.305 203.344 364.133 218.994 370.464 230.415L370.503 230.485L370.543 230.555ZM290.736 526.287C294.557 528.644 299.398 531.506 304.636 534.487C297.728 533.201 291.223 531.868 286.287 530.696C274.037 527.787 253.486 521.666 241.063 517.219C228.307 512.653 211.238 505.793 203.546 502.027L203.43 501.97L203.313 501.915C195.188 498.096 178.689 489.042 167.253 481.948L167.194 481.911L167.135 481.875C152.963 473.251 140.753 464.37 129.096 454.241L129.034 454.187L128.971 454.133C119.351 445.945 106.526 433.725 100.491 427.446C94.8425 421.254 84.5898 408.32 77.8116 398.812C71.1625 389.486 61.6219 373.867 56.9065 364.632C52.1364 355.29 45.1021 338.68 41.8668 328.318L41.8283 328.194L41.7879 328.071C38.2316 317.29 33.9333 301.32 32.4911 293.13C32.344 292.177 32.188 291.145 32.0258 290.048C35.571 290.347 39.4254 290.724 43.4094 291.173L43.5393 291.187L43.6696 291.2C59.5203 292.725 79.4698 295.689 87.6888 297.233C95.8475 298.766 113.514 302.918 126.534 306.28C128.391 306.783 129.921 307.175 131.194 307.486C131.844 310.232 132.481 312.757 133.091 314.981L133.116 315.074L133.143 315.166C137.643 330.846 144.832 349.583 153.938 369.435C161.598 386.136 172.218 406.273 177.626 414.704L177.728 414.862L177.832 415.018C183.096 422.818 192.43 435.486 198.296 443.254L198.399 443.391L198.505 443.525C204.916 451.651 216.247 464.467 223.967 472.443C231.857 480.595 245.297 492.832 254.164 500.198L254.271 500.287L254.38 500.374C263.571 507.746 279.722 519.268 290.537 526.161L290.636 526.225L290.736 526.287ZM502.22 530.697C496.781 531.991 489.428 533.481 481.735 534.89C487.77 531.463 493.444 528.082 497.894 525.25C509.441 517.899 526.89 505.2 536.832 496.822C546.748 488.467 562.073 473.651 571.291 463.53C580.201 453.749 592.336 439.274 598.226 430.912C604.289 422.575 614.749 405.883 621.67 393.375C630.622 377.514 637.779 361.916 643.848 345.02C648.058 333.633 652.939 318.235 655.925 307.771C657.337 307.424 659.208 306.945 661.668 306.278C674.659 302.915 692.285 298.764 700.423 297.232C708.623 295.688 728.528 292.724 744.343 291.199L744.474 291.186L744.603 291.172C748.563 290.725 752.394 290.349 755.92 290.052C755.758 291.149 755.603 292.181 755.456 293.134C754.016 301.326 749.727 317.298 746.178 328.08L746.138 328.203L746.099 328.325C742.87 338.69 735.851 355.301 731.091 364.643C726.385 373.879 716.865 389.498 710.229 398.825C703.466 408.331 693.236 421.265 687.6 427.456C681.578 433.735 668.781 445.955 659.181 454.144L659.118 454.197L659.056 454.251C647.425 464.378 635.243 473.259 621.104 481.881L621.044 481.918L620.985 481.954C609.574 489.049 593.111 498.101 585.007 501.919L584.89 501.974L584.773 502.032C577.1 505.797 560.07 512.655 547.342 517.221C534.947 521.668 514.442 527.787 502.22 530.697ZM632.986 255.048C631.305 267.896 628.164 285.743 626.028 294.6C623.627 303.625 618.072 321.52 613.502 333.872L613.474 333.946L613.447 334.021C607.992 349.221 601.582 363.2 593.482 377.545L593.446 377.607L593.411 377.672C586.917 389.416 577.081 405.039 572.02 411.982L571.935 412.098L571.853 412.215C567.141 418.925 555.979 432.33 547.39 441.761C539.066 450.901 524.759 464.718 516 472.1C507.266 479.46 490.994 491.319 480.534 497.978C470.046 504.654 451.595 514.927 440.131 520.225L440.04 520.268L439.949 520.311C435.753 522.313 430.871 524.504 425.951 526.616C428.612 517.464 431.335 507.184 433.252 498.913C436.76 484.47 440.721 461.338 442.367 447.276C444.019 433.159 445.345 410.806 445.258 397.404C445.171 384.032 443.632 362.138 441.815 348.238C440.054 334.774 436.806 315.741 434.249 305.713C431.814 295.544 425.892 276.522 420.884 263.027C418.06 255.217 415.049 247.745 411.782 240.466C418.648 226.415 425.41 214.351 431.543 205.037C438.144 195.303 452.082 177.853 462.574 166.451L462.643 166.377L462.71 166.302C473.045 154.787 488.782 139.722 497.015 133.115C505.638 126.193 521.215 114.913 531.043 108.64C541.468 102.21 555.613 94.0174 562.131 90.7219C568.716 87.3925 585.133 80.0721 598.356 75.205L598.514 75.1465L598.672 75.0846C603.384 73.2373 607.874 71.617 611.703 70.3509C612.846 73.4068 614.072 76.9287 615.274 80.6585C619.008 92.7226 623.922 111.226 626.56 121.776C628.848 131.572 631.946 150.811 633.484 163.957L633.496 164.058L633.509 164.159C635.169 176.95 636.236 197.8 636.157 209.863C636.079 221.83 634.641 242.393 632.986 255.048ZM401.776 491.534C399.669 500.638 396.525 512.27 393.748 521.519C390.956 512.235 387.779 500.492 385.655 491.316L385.635 491.228L385.613 491.14C382.473 478.237 378.897 456.994 377.265 444.479C375.847 432.262 374.54 412.969 374.357 401.975C374.362 390.901 375.119 373.382 376.159 363.162C377.22 352.733 379.575 336.558 381.402 327.373C383.514 317.834 386.943 303.177 389.231 294.846C390.077 292.058 391.601 287.751 393.547 282.637C397.403 293.905 401.216 306.553 402.833 313.339L402.864 313.473L402.899 313.607C404.984 321.74 408.054 339.398 409.758 352.43C411.413 365.085 412.851 385.648 412.929 397.615C413.007 409.55 411.773 430.572 410.257 443.519C408.739 456.494 404.977 478.377 401.818 491.357L401.797 491.445L401.776 491.534ZM166.587 68.1377C166.587 68.1377 166.596 68.1385 166.619 68.1417L166.587 68.1377Z" fill="url(#paint2_linear_103_1426)"/>
</g>
<defs>
<linearGradient id="paint0_linear_103_1426" x1="501.883" y1="665.09" x2="433.91" y2="500.085" gradientUnits="userSpaceOnUse">
<stop offset="0.264017" stop-color="#7C4090"/>
<stop offset="0.728502" stop-color="#52132A"/>
<stop offset="1" stop-color="#380D1D"/>
</linearGradient>
<linearGradient id="paint1_linear_103_1426" x1="277.778" y1="629.049" x2="186.566" y2="416.431" gradientUnits="userSpaceOnUse">
<stop offset="0.264017" stop-color="#7C4090"/>
<stop offset="0.728502" stop-color="#52132A"/>
<stop offset="1" stop-color="#380D1D"/>
</linearGradient>
<linearGradient id="paint2_linear_103_1426" x1="755.92" y1="534.89" x2="289.034" y2="-169.401" gradientUnits="userSpaceOnUse">
<stop offset="0.264017" stop-color="#7C4090"/>
<stop offset="0.728502" stop-color="#52132A"/>
<stop offset="1" stop-color="#380D1D"/>
</linearGradient>
</defs>
</svg>
