<svg width="76" height="40" viewBox="0 0 76 40" fill="none" xmlns="http://www.w3.org/2000/svg">
<g clip-path="url(#clip0_103_1208)">
<path d="M6.07826 0.233398C6.07826 0.233398 0.849854 0.233398 0.849854 5.4827V33.8641C0.849854 33.8641 0.849854 39.5655 6.52855 39.5655H70.6703C70.6703 39.5655 75.8987 39.5655 75.8987 34.3162V18.2418C75.8987 18.2418 75.8987 0.233398 57.962 0.233398H6.07826Z" fill="#6A2875"/>
<path d="M10.206 14.399C12.0071 14.399 12.3323 14.4743 12.4824 14.8762C12.5825 15.2027 12.6576 15.8055 12.7326 16.3581C13.9084 15.0018 15.8096 14.0474 18.0361 14.0474C20.2625 14.0474 22.0387 14.7757 23.1394 16.0315C24.3402 17.3878 24.8655 19.1711 24.8655 21.959V33.2864C24.8655 33.6883 24.6404 33.839 22.489 33.839H22.3138C19.9373 33.839 19.8622 33.6883 19.8622 33.2864V23.3404C19.8622 20.8036 19.7121 20.025 19.1368 19.372C18.6615 18.8195 17.7359 18.5181 16.6852 18.5181C15.8346 18.5181 14.884 18.6939 14.2336 19.0957C13.4581 19.5729 13.283 20.1757 13.2079 21.0548C13.1329 21.9088 13.1329 23.265 13.1329 24.6715V33.2864C13.1329 33.6883 12.9077 33.839 10.7563 33.839H10.5812C8.20465 33.839 8.1296 33.6883 8.1296 33.2864V23.1395C8.1296 20.2762 8.02954 17.0613 7.87944 15.0771C7.85442 14.5748 7.97951 14.4241 10.0809 14.4241H10.206V14.399Z" fill="white"/>
<path d="M39.0996 20.0501C38.174 18.945 37.0733 18.3673 35.7975 18.3673C33.1207 18.3673 31.8449 20.5022 31.8449 24.3952C31.8449 26.5552 32.3452 27.9617 33.0957 28.8157C33.7461 29.5943 34.8218 29.8705 35.8475 29.8705C36.8732 29.8705 38.0489 29.4938 38.5993 28.9161C38.9995 28.464 39.0996 27.8864 39.0996 26.9319V20.0501ZM41.7513 5.85938C43.9027 5.85938 44.1279 6.01007 44.1279 6.41193V28.891C44.1279 29.6947 44.4531 29.9208 45.1786 29.9208C45.6289 29.9208 45.6539 30.0966 45.6539 31.4277V31.8296C45.6539 33.1105 45.5788 33.4119 45.3287 33.5124C44.6782 33.7636 43.6776 33.9645 42.7019 33.9645C41.0759 33.9645 40.0002 33.2361 39.4999 32.131C38.249 33.4622 36.4229 34.1905 34.3965 34.1905C29.5934 34.1905 26.6665 30.4231 26.6665 24.3952C26.6665 17.8901 29.9186 14.0222 34.7217 14.0222C36.4479 14.0222 37.8738 14.5998 39.0746 15.6798V6.41193C39.0746 6.01007 39.1496 5.85938 41.5262 5.85938H41.7513Z" fill="white"/>
<path d="M54.8101 29.6697C55.4355 28.5645 55.7607 28.238 56.1609 28.5394C57.5869 29.4938 59.313 30.1218 60.864 30.1218C62.8153 30.1218 63.941 29.3934 63.941 28.3887C63.941 25.5255 54.5599 27.2836 54.5599 20.2511C54.5599 16.3831 57.8621 14.0222 62.1398 14.0222C64.5664 14.0222 66.6428 14.6752 68.1938 15.8557C68.569 16.1069 68.494 16.4083 67.7435 17.6641L67.4183 18.1915C66.7679 19.3218 66.4927 19.5227 66.0924 19.2464C64.9166 18.518 63.7909 18.0659 62.34 18.0659C61.2893 18.0659 60.4387 18.292 59.9634 18.6938C59.6382 18.9952 59.4631 19.3218 59.4631 19.7738C59.4631 22.5366 68.8442 21.105 68.8442 27.7357C68.8442 29.4185 68.1437 31.0511 66.968 32.1813C65.6171 33.5124 63.5908 34.2157 60.914 34.2157C58.0872 34.2157 55.6106 33.2864 54.0846 32.0055C53.7844 31.7543 53.8344 31.4278 54.4098 30.3478L54.8101 29.6697Z" fill="white"/>
<path d="M50.2821 14.3989C52.4585 14.3989 52.6586 14.5496 52.6586 14.9515V33.2864C52.6586 33.6882 52.4335 33.8389 50.2821 33.8389H50.082C47.7054 33.8389 47.6304 33.6882 47.6304 33.2864V14.9515C47.6304 14.5496 47.7054 14.3989 50.082 14.3989H50.2821Z" fill="white"/>
<path d="M50.0818 12.3394C51.858 12.3394 53.3089 10.8826 53.3089 9.09938C53.3089 7.31612 51.858 5.85938 50.0818 5.85938C48.3057 5.85938 46.8547 7.31612 46.8547 9.09938C46.8547 10.8826 48.3057 12.3394 50.0818 12.3394Z" fill="#82C341"/>
</g>
<defs>
<clipPath id="clip0_103_1208">
<rect width="75.2" height="40" fill="white" transform="translate(0.799805)"/>
</clipPath>
</defs>
</svg>
