<svg width="154" height="56" viewBox="0 0 154 56" fill="none" xmlns="http://www.w3.org/2000/svg">
<path d="M23.9109 48.6087C23.6481 48.0522 23.4316 47.4801 23.4316 47.341V47.3255C23.4316 47.1864 23.478 47.0627 23.5399 47.0627C23.6172 47.0627 24.4983 47.2019 25.5187 47.3719C26.5391 47.5265 28.1778 47.743 29.1518 47.8357C30.1258 47.913 31.7336 47.9903 32.7076 47.9903C33.6816 47.9903 35.2894 47.913 36.2634 47.8357C37.2373 47.743 38.8761 47.5265 39.8964 47.3719C40.9168 47.2019 41.798 47.0627 41.8598 47.0627C41.9372 47.0627 41.9835 47.1864 41.9835 47.3255C41.9835 47.4801 41.7516 48.0522 41.4734 48.5932C41.1951 49.1807 40.5148 50.0928 39.881 50.7576C39.278 51.4069 38.2268 52.3191 37.562 52.8138C36.8818 53.2931 35.5213 54.1124 32.7076 55.5657L31.2698 54.8545C30.4968 54.4525 29.26 53.7569 28.5334 53.2931C27.8068 52.8138 26.5854 51.8089 25.8124 51.0205C24.8075 50.0156 24.2665 49.3199 23.9109 48.6087Z" fill="#9B51B4"/>
<path d="M49.9564 44.0941C50.8995 43.6921 52.4146 42.9036 53.3576 42.3626C54.3007 41.8215 55.1664 41.3731 55.2901 41.3577C55.4138 41.3422 55.9085 41.4504 56.3723 41.5895C56.8361 41.7287 57.5318 41.9915 57.9183 42.1925C58.3048 42.378 59.9745 43.4448 61.6287 44.5269C63.2829 45.6246 64.8752 46.6295 65.1535 46.7532C65.4318 46.8769 65.6637 47.0315 65.6483 47.0933C65.6483 47.1705 65.1845 47.5571 64.6124 47.9899C64.025 48.4074 62.9273 49.103 62.1697 49.5205C61.4123 49.9533 60.2528 50.4945 59.6189 50.7572C58.985 51.0046 57.8719 51.3911 57.1453 51.5921C56.4187 51.8085 55.1046 52.0869 54.208 52.2259C53.3113 52.3651 51.7498 52.4733 50.7294 52.4733C49.7091 52.4733 48.1785 52.3651 47.3283 52.2414C46.478 52.1023 45.0866 51.8086 44.2517 51.5766C43.4014 51.3447 42.5975 51.0819 42.4738 50.9737C42.2574 50.8191 42.2574 50.7727 42.4738 50.5099C42.613 50.3553 42.9376 49.8451 43.2005 49.3813C43.4478 48.9175 43.7725 48.1755 43.8962 47.758C44.0199 47.3251 44.1745 46.7995 44.2208 46.5522C44.3136 46.1657 44.4682 46.0884 46.277 45.4854C47.3747 45.1299 49.0134 44.5115 49.9564 44.0941Z" fill="#9B51B4"/>
<path d="M7.46742 42.3729C7.85396 42.1719 8.54964 41.8936 9.01345 41.739C9.47726 41.5844 9.98742 41.4607 10.142 41.4607C10.2811 41.4453 10.9459 41.7699 11.6107 42.1565C12.26 42.5584 13.3267 43.1305 13.9606 43.4551C14.5945 43.7798 15.7076 44.2745 16.4342 44.5682C17.1608 44.8774 18.5367 45.3876 19.4952 45.7123C21.0257 46.2379 21.2577 46.3616 21.3349 46.7017C21.3814 46.9181 21.4895 47.3665 21.5669 47.7066C21.6596 48.0467 21.9224 48.7115 22.1698 49.1753C22.4017 49.6391 22.7418 50.2574 23.2365 51.0304L22.7418 51.2469C22.4635 51.3551 21.505 51.6334 20.6084 51.8498C19.7116 52.0817 18.3512 52.3445 17.5936 52.4373C16.7434 52.5455 15.2901 52.5764 13.8833 52.53C12.4919 52.4682 10.9769 52.3136 10.0956 52.1281C9.29168 51.958 8.07038 51.6334 7.39016 51.4014C6.7099 51.1696 5.48857 50.6903 4.68466 50.3038C3.88074 49.9328 2.55118 49.1753 1.74727 48.6496C0.943359 48.1085 0.185821 47.552 0.0930613 47.4128C-0.0769972 47.1964 -0.0306178 47.1191 0.371339 46.9027C0.649618 46.7481 2.19561 45.7432 3.8189 44.6764C5.44219 43.5943 7.08094 42.5584 7.46742 42.3729Z" fill="#9B51B4"/>
<path fill-rule="evenodd" clip-rule="evenodd" d="M26.2332 9.18643L26.2252 9.17962C26.288 9.05082 26.3596 8.90983 26.4477 8.73672L26.4711 8.69072C26.8806 7.88538 27.6629 6.51636 28.1857 5.71204C28.7478 4.87506 29.5292 3.77641 29.9065 3.30331C30.2876 2.82541 31.2706 1.70446 32.0983 0.874026L32.1078 0.864457L32.1172 0.854689C32.4203 0.53815 32.7141 0.24761 32.9662 0.0114746C33.152 0.181077 33.3589 0.378945 33.5713 0.591865C34.265 1.30494 35.2696 2.4297 35.8311 3.07802C36.3358 3.68091 37.2281 4.92149 37.7949 5.79127L37.7999 5.79882L37.8049 5.80631C38.366 6.64276 39.1616 8.07125 39.569 8.92138C39.6051 8.99681 39.6389 9.06641 39.6706 9.13099C38.8294 9.83879 37.5618 11.0683 36.6991 12.0287C35.7456 13.0657 34.492 14.6314 33.8549 15.5723L33.8502 15.5791L33.8456 15.5862C33.5423 16.0464 33.2306 16.5642 32.916 17.129C32.3948 16.2464 31.7911 15.2974 31.4205 14.7603L31.4122 14.7484L31.4037 14.7366C30.8915 14.0274 29.8707 12.8002 29.1157 11.9713C28.3447 11.1247 27.0627 9.88536 26.2332 9.18643ZM30.9962 19.2162C31.155 19.496 31.3067 19.7762 31.452 20.0584C30.8391 21.4185 30.196 23.0615 29.9651 23.8307L29.9607 23.8453L29.9567 23.86C29.7446 24.6289 29.4403 25.934 29.261 26.7448L29.258 26.7582L29.2553 26.7717C29.0824 27.6362 28.872 29.0868 28.7755 30.0353C28.677 31.0029 28.6108 32.5702 28.6108 33.5667V33.5775L28.611 33.5883C28.6273 34.6062 28.7444 36.3258 28.8734 37.4331L28.8744 37.4421L28.8756 37.451C29.0187 38.552 29.3332 40.4353 29.6273 41.6466C29.7906 42.351 30.0238 43.2296 30.2501 44.0055C29.8345 43.8272 29.4215 43.6421 29.067 43.4729L29.0595 43.4693L29.0519 43.4658C28.0995 43.0256 26.6057 42.1866 25.7489 41.6584C24.9235 41.1317 23.6664 40.2341 22.98 39.6845C22.2969 39.1164 21.2542 38.1649 20.678 37.5697C20.0888 36.9609 19.2101 35.966 18.7368 35.3676C18.2546 34.7287 17.5242 33.7355 17.1266 33.1477C16.7675 32.5839 15.9473 31.0413 15.335 29.7062C14.6132 28.1328 14.0678 26.6994 13.739 25.5559C13.4745 24.5883 13.1096 22.7079 12.9425 21.3804L12.9415 21.3724L12.9405 21.3646C12.7583 20.0429 12.6341 18.1566 12.6486 17.2294C12.6638 16.2632 12.7671 14.5834 12.8852 13.5649C13.0237 12.5015 13.2452 11.0812 13.3783 10.4466C13.5125 9.80639 13.9061 8.2715 14.2876 7.08725L14.2915 7.07501L14.2952 7.0627C14.4322 6.60796 14.5725 6.18308 14.6985 5.83302C14.9289 5.90583 15.1866 5.99379 15.4549 6.09243C16.3894 6.44998 17.784 7.05594 18.5725 7.41371C19.2887 7.75382 20.6332 8.52279 21.5238 9.08974L21.5316 9.0947L21.5395 9.09959C22.4098 9.63698 23.7511 10.6313 24.4906 11.2544C25.2233 11.8719 26.4201 13.0278 27.1164 13.7923C27.8242 14.5694 28.7659 15.7054 29.203 16.3084C29.6378 16.9399 30.46 18.2491 30.9896 19.2045L30.9929 19.2104L30.9962 19.2162ZM24.3202 43.9546C24.6399 44.1518 25.0448 44.3912 25.483 44.6406C24.9051 44.533 24.3609 44.4215 23.9481 44.3234C22.9233 44.0801 21.2042 43.5681 20.165 43.1961C19.0979 42.8141 17.6701 42.2403 17.0266 41.9252L17.0169 41.9205L17.0071 41.9159C16.3275 41.5964 14.9473 40.839 13.9906 40.2456L13.9857 40.2425L13.9808 40.2395C12.7953 39.5181 11.7739 38.7752 10.7988 37.9279L10.7936 37.9234L10.7884 37.9189C9.98359 37.2339 8.9108 36.2117 8.40595 35.6865C7.93342 35.1685 7.07577 34.0865 6.50876 33.2912C5.95256 32.5111 5.15447 31.2045 4.76003 30.432C4.361 29.6505 3.77257 28.261 3.50193 27.3942L3.49871 27.3839L3.49533 27.3736C3.19784 26.4717 2.83828 25.1358 2.71763 24.4507C2.70533 24.371 2.69229 24.2847 2.67871 24.1929C2.97528 24.2179 3.2977 24.2494 3.63097 24.287L3.64184 24.2882L3.65274 24.2893C4.97867 24.4168 6.64747 24.6648 7.335 24.7939C8.0175 24.9221 9.49533 25.2695 10.5845 25.5508C10.7398 25.5928 10.8678 25.6256 10.9743 25.6516C11.0287 25.8813 11.082 26.0925 11.1329 26.2785L11.1351 26.2863L11.1373 26.2941C11.5137 27.6057 12.1151 29.1731 12.8769 30.8338C13.5176 32.2308 14.406 33.9153 14.8584 34.6206L14.8669 34.6337L14.8757 34.6468C15.316 35.2993 16.0968 36.359 16.5875 37.0089L16.5961 37.0203L16.6049 37.0315C17.1412 37.7113 18.0891 38.7833 18.7349 39.4505C19.3949 40.1325 20.5192 41.1561 21.2609 41.7723L21.2699 41.7797L21.2789 41.787C22.0478 42.4036 23.3989 43.3675 24.3036 43.9441L24.3119 43.9495L24.3202 43.9546ZM42.0111 44.3235C41.5562 44.4318 40.9411 44.5564 40.2975 44.6743C40.8024 44.3876 41.277 44.1048 41.6493 43.8679C42.6152 43.253 44.0748 42.1907 44.9065 41.4898C45.736 40.7909 47.0179 39.5515 47.789 38.7049C48.5343 37.8867 49.5495 36.6759 50.0422 35.9764C50.5494 35.2789 51.4244 33.8827 52.0033 32.8364C52.7521 31.5096 53.3508 30.2048 53.8585 28.7914C54.2107 27.8388 54.619 26.5507 54.8688 25.6754C54.9869 25.6465 55.1434 25.6063 55.3492 25.5505C56.4359 25.2693 57.9104 24.922 58.5912 24.7938C59.2771 24.6647 60.9422 24.4167 62.2651 24.2892L62.276 24.2881L62.2869 24.2869C62.6181 24.2496 62.9386 24.2181 63.2336 24.1932C63.22 24.285 63.207 24.3714 63.1947 24.451C63.0743 25.1364 62.7155 26.4724 62.4186 27.3743L62.4153 27.3846L62.412 27.3949C62.1419 28.2619 61.5547 29.6514 61.1565 30.4329C60.7629 31.2055 59.9665 32.5121 59.4115 33.2922C58.8457 34.0874 57.9899 35.1694 57.5185 35.6873C57.0147 36.2125 55.9442 37.2348 55.1411 37.9197L55.1359 37.9242L55.1307 37.9287C54.1578 38.7759 53.1388 39.5188 51.956 40.2401L51.951 40.2431L51.946 40.2462C50.9915 40.8396 49.6144 41.5969 48.9364 41.9162L48.9266 41.9208L48.9169 41.9257C48.275 42.2407 46.8504 42.8144 45.7857 43.1963C44.7488 43.5682 43.0336 44.0802 42.0111 44.3235ZM52.9499 21.2651C52.8093 22.3398 52.5466 23.8328 52.3679 24.5737C52.167 25.3287 51.7024 26.8256 51.32 27.8588L51.3178 27.865L51.3155 27.8713C50.8591 29.1428 50.3229 30.3122 49.6453 31.5121L49.6424 31.5174L49.6394 31.5228C49.0962 32.5052 48.2734 33.8121 47.85 34.3929L47.8429 34.4026L47.836 34.4124C47.4419 34.9736 46.5082 36.095 45.7897 36.884C45.0934 37.6485 43.8966 38.8043 43.1639 39.4218C42.4333 40.0375 41.0721 41.0295 40.1971 41.5865C39.3198 42.145 37.7763 43.0044 36.8173 43.4476L36.8097 43.4511L36.8021 43.4547C36.4511 43.6222 36.0427 43.8055 35.6312 43.9821C35.8537 43.2166 36.0815 42.3566 36.2418 41.6648C36.5353 40.4566 36.8667 38.5216 37.0044 37.3453C37.1425 36.1643 37.2535 34.2945 37.2462 33.1734C37.2389 32.0548 37.1102 30.2234 36.9582 29.0605C36.8109 27.9343 36.5391 26.3421 36.3253 25.5033C36.1216 24.6526 35.6262 23.0615 35.2073 21.9325C34.9711 21.2792 34.7192 20.6542 34.4459 20.0452C35.0202 18.8699 35.5859 17.8608 36.0989 17.0816C36.6511 16.2674 37.817 14.8076 38.6947 13.8538L38.7005 13.8476L38.7061 13.8414C39.5706 12.8781 40.8871 11.6179 41.5757 11.0652C42.2971 10.4862 43.6001 9.54256 44.4222 9.01786C45.2944 8.47997 46.4776 7.79465 47.0228 7.51897C47.5736 7.24046 48.947 6.6281 50.0531 6.22096L50.0663 6.21606L50.0795 6.21089C50.4737 6.05636 50.8493 5.92082 51.1696 5.81491C51.2652 6.07054 51.3677 6.36515 51.4683 6.67715C51.7806 7.68633 52.1917 9.2342 52.4124 10.1167C52.6038 10.9361 52.8629 12.5455 52.9916 13.6452L52.9926 13.6537L52.9937 13.6621C53.1325 14.7321 53.2218 16.4762 53.2152 17.4853C53.2086 18.4863 53.0884 20.2064 52.9499 21.2651ZM33.6089 41.0475C33.4326 41.809 33.1696 42.7821 32.9374 43.5558C32.7038 42.7792 32.438 41.7969 32.2603 41.0293L32.2586 41.0219L32.2568 41.0146C31.9941 39.9352 31.695 38.1582 31.5585 37.1113C31.4399 36.0893 31.3305 34.4754 31.3152 33.5558C31.3156 32.6294 31.379 31.1639 31.466 30.309C31.5547 29.4366 31.7517 28.0835 31.9045 27.3152C32.0813 26.5172 32.3681 25.2912 32.5595 24.5942C32.6302 24.3611 32.7577 24.0008 32.9205 23.573C33.2431 24.5155 33.562 25.5736 33.6973 26.1412L33.6999 26.1524L33.7028 26.1636C33.8772 26.844 34.1341 28.3211 34.2766 29.4112C34.415 30.4698 34.5353 32.1899 34.5419 33.191C34.5484 34.1894 34.4451 35.9479 34.3184 37.031C34.1913 38.1164 33.8767 39.9469 33.6124 41.0327L33.6106 41.0401L33.6089 41.0475ZM13.9349 5.62977C13.9349 5.62977 13.9357 5.62984 13.9376 5.6301L13.9349 5.62977Z" fill="#EF224B"/>
<path d="M75.0986 40.1271V7.75319H86.1519C88.4486 7.75319 90.4377 8.11549 92.1177 8.84001C93.7984 9.54916 95.0857 10.6745 95.9795 12.2162C96.889 13.7578 97.3441 15.7619 97.3441 18.2284C97.3441 20.6951 96.889 22.7146 95.9795 24.287C95.0857 25.8441 93.7984 26.9926 92.1177 27.7326C90.4533 28.4725 88.4798 28.8425 86.198 28.8425H80.2783V40.1271H75.0986ZM80.2783 24.472H85.5274C87.7475 24.472 89.4127 23.971 90.5227 22.969C91.6321 21.9669 92.1871 20.4099 92.1871 18.2978C92.1871 16.1704 91.6477 14.6134 90.5688 13.6267C89.4892 12.6247 87.7936 12.1237 85.4813 12.1237H80.2783V24.472ZM102.017 40.1271V7.75319H113.093C116.084 7.75319 118.373 8.41611 119.961 9.7419C121.564 11.0522 122.366 13.0101 122.366 15.6154C122.366 17.4654 121.957 19.0533 121.141 20.3791C120.323 21.7048 119.098 22.6144 117.464 23.1077L117.856 22.2059C120.246 22.6529 122.066 23.601 123.314 25.0502C124.563 26.4993 125.187 28.4494 125.187 30.9006C125.187 33.768 124.262 36.0265 122.412 37.676C120.562 39.3101 118.019 40.1271 114.781 40.1271H102.017ZM107.058 35.5948H114.203C115.914 35.5948 117.279 35.2017 118.296 34.4155C119.329 33.6138 119.845 32.3266 119.845 30.5537C119.845 28.6267 119.314 27.2932 118.25 26.5532C117.201 25.7978 115.852 25.4201 114.203 25.4201H107.058V35.5948ZM107.058 20.8877H112.4C113.91 20.8877 115.098 20.5872 115.96 19.9859C116.839 19.3693 117.279 18.2362 117.279 16.5867C117.279 14.9217 116.839 13.7886 115.96 13.1874C115.098 12.5707 113.91 12.2624 112.4 12.2624H107.058V20.8877ZM139.383 40.7746C138.057 40.7746 136.708 40.659 135.336 40.4278C133.979 40.2119 132.723 39.9345 131.567 39.5953C130.41 39.2562 129.463 38.917 128.723 38.5779L129.37 33.213C130.31 33.6755 131.367 34.1226 132.538 34.5542C133.725 34.9858 134.974 35.3481 136.284 35.641C137.595 35.9339 138.92 36.0804 140.261 36.0804C142.127 36.0804 143.615 35.7336 144.724 35.0398C145.834 34.3306 146.389 33.2362 146.389 31.7562C146.389 30.6462 146.097 29.7444 145.51 29.0506C144.925 28.3415 144.039 27.7326 142.852 27.2238C141.68 26.6997 140.185 26.1524 138.365 25.582C136.623 25.027 135.028 24.3795 133.579 23.6395C132.145 22.8996 130.997 21.9361 130.133 20.749C129.27 19.5466 128.838 17.9818 128.838 16.0548C128.838 14.3128 129.278 12.7711 130.157 11.43C131.05 10.0733 132.361 9.0173 134.087 8.26194C135.814 7.49112 137.949 7.10571 140.493 7.10571C142.559 7.10571 144.478 7.33694 146.251 7.7994C148.039 8.24648 149.535 8.73212 150.737 9.25625L150.228 14.5286C148.44 13.5728 146.744 12.879 145.141 12.4474C143.553 12.0158 141.919 11.7999 140.239 11.7999C138.419 11.7999 136.947 12.1237 135.822 12.7711C134.712 13.4186 134.157 14.4438 134.157 15.8467C134.157 16.8642 134.427 17.6889 134.966 18.321C135.506 18.9376 136.3 19.4694 137.348 19.9165C138.396 20.3636 139.676 20.8261 141.186 21.304C143.484 21.9977 145.434 22.7839 147.037 23.6627C148.64 24.5414 149.858 25.6129 150.691 26.877C151.539 28.1411 151.963 29.7058 151.963 31.5712C151.963 32.7736 151.746 33.9221 151.315 35.0167C150.899 36.1112 150.205 37.0979 149.234 37.9766C148.262 38.8399 146.968 39.526 145.349 40.0346C143.745 40.528 141.757 40.7746 139.383 40.7746Z" fill="white"/>
<path d="M75.0151 47.7596V44.2513H76.2131C76.4619 44.2513 76.6774 44.2906 76.8596 44.3691C77.0411 44.4459 77.1807 44.5679 77.2778 44.735C77.3764 44.902 77.426 45.1192 77.426 45.3865C77.426 45.6538 77.3764 45.8726 77.2778 46.043C77.1807 46.2118 77.0411 46.3362 76.8596 46.4165C76.6788 46.4966 76.4648 46.5367 76.2181 46.5367H75.5766V47.7596H75.0151ZM75.5766 46.0631H76.1451C76.3854 46.0631 76.5661 46.0088 76.6866 45.9002C76.8064 45.7916 76.8667 45.6229 76.8667 45.394C76.8667 45.1635 76.8086 44.9947 76.6916 44.8878C76.5746 44.7792 76.391 44.7249 76.1401 44.7249H75.5766V46.0631ZM79.6362 46.8625H78.1476V46.3739H79.6362V46.8625ZM78.8168 44.7851H78.967L77.9165 47.7596H77.3657L78.6183 44.2513H79.1648L80.4174 47.7596H79.8666L78.8168 44.7851ZM81.8493 47.8298C81.7054 47.8298 81.5593 47.8173 81.4105 47.7922C81.2637 47.7688 81.1276 47.7387 81.0022 47.702C80.8767 47.6652 80.7739 47.6285 80.6938 47.5917L80.764 47.0104C80.8661 47.0605 80.9802 47.1089 81.1071 47.1557C81.2361 47.2025 81.3715 47.2417 81.5133 47.2735C81.6557 47.3052 81.7989 47.3211 81.9443 47.3211C82.1463 47.3211 82.3079 47.2835 82.4284 47.2083C82.5482 47.1315 82.6085 47.0128 82.6085 46.8525C82.6085 46.7322 82.5766 46.6344 82.5135 46.5593C82.4497 46.4824 82.354 46.4165 82.225 46.3613C82.0981 46.3045 81.9357 46.2452 81.7387 46.1834C81.5501 46.1232 81.3772 46.0531 81.2205 45.9729C81.0646 45.8927 80.9405 45.7883 80.8469 45.6596C80.7534 45.5293 80.7066 45.3598 80.7066 45.1509C80.7066 44.9622 80.7541 44.7951 80.8491 44.6498C80.9462 44.5028 81.0879 44.3883 81.2751 44.3064C81.4622 44.2229 81.694 44.1812 81.9698 44.1812C82.1931 44.1812 82.4015 44.2062 82.5936 44.2563C82.7871 44.3048 82.9494 44.3574 83.0799 44.4142L83.0246 44.9856C82.831 44.882 82.6467 44.8068 82.4731 44.76C82.3008 44.7132 82.1243 44.6898 81.9421 44.6898C81.7451 44.6898 81.5856 44.7249 81.4629 44.7951C81.3431 44.8653 81.2829 44.9764 81.2829 45.1284C81.2829 45.2386 81.3119 45.328 81.3708 45.3965C81.4289 45.4633 81.5154 45.521 81.6288 45.5695C81.7422 45.6179 81.8812 45.668 82.0449 45.7198C82.2937 45.7949 82.505 45.8802 82.6786 45.9754C82.8523 46.0706 82.9842 46.1867 83.0749 46.3238C83.1663 46.4607 83.2124 46.6303 83.2124 46.8324C83.2124 46.9627 83.189 47.0872 83.1422 47.2058C83.0969 47.3245 83.0217 47.4314 82.9168 47.5266C82.8112 47.6201 82.6708 47.6945 82.4957 47.7496C82.3221 47.8031 82.1066 47.8298 81.8493 47.8298ZM84.7662 47.8298C84.6223 47.8298 84.4763 47.8173 84.3274 47.7922C84.1807 47.7688 84.0446 47.7387 83.9191 47.702C83.7937 47.6652 83.6909 47.6285 83.6108 47.5917L83.681 47.0104C83.783 47.0605 83.8979 47.1089 84.0248 47.1557C84.1531 47.2025 84.2885 47.2417 84.4302 47.2735C84.5727 47.3052 84.7159 47.3211 84.8612 47.3211C85.0639 47.3211 85.2249 47.2835 85.3454 47.2083C85.4652 47.1315 85.5254 47.0128 85.5254 46.8525C85.5254 46.7322 85.4935 46.6344 85.4304 46.5593C85.3666 46.4824 85.2709 46.4165 85.1419 46.3613C85.015 46.3045 84.8534 46.2452 84.6564 46.1834C84.4671 46.1232 84.2941 46.0531 84.1375 45.9729C83.9822 45.8927 83.8575 45.7883 83.7639 45.6596C83.6703 45.5293 83.6235 45.3598 83.6235 45.1509C83.6235 44.9622 83.671 44.7951 83.7667 44.6498C83.8631 44.5028 84.0056 44.3883 84.1921 44.3064C84.3792 44.2229 84.611 44.1812 84.8867 44.1812C85.1107 44.1812 85.3184 44.2062 85.5105 44.2563C85.704 44.3048 85.8664 44.3574 85.9968 44.4142L85.9415 44.9856C85.748 44.882 85.5637 44.8068 85.39 44.76C85.2185 44.7132 85.0413 44.6898 84.8591 44.6898C84.662 44.6898 84.5025 44.7249 84.3806 44.7951C84.2601 44.8653 84.1998 44.9764 84.1998 45.1284C84.1998 45.2386 84.2289 45.328 84.2877 45.3965C84.3459 45.4633 84.4324 45.521 84.5458 45.5695C84.6592 45.6179 84.7981 45.668 84.9619 45.7198C85.2107 45.7949 85.4219 45.8802 85.5956 45.9754C85.7693 46.0706 85.9011 46.1867 85.9918 46.3238C86.0833 46.4607 86.1294 46.6303 86.1294 46.8324C86.1294 46.9627 86.106 47.0872 86.0592 47.2058C86.0145 47.3245 85.9394 47.4314 85.8338 47.5266C85.7289 47.6201 85.5885 47.6945 85.4127 47.7496C85.239 47.8031 85.0235 47.8298 84.7662 47.8298ZM86.6738 47.7596V44.2513H87.2196V47.7596H86.6738ZM89.5354 47.8298C89.2016 47.8298 88.9046 47.7546 88.6437 47.6042C88.3828 47.4539 88.1787 47.2426 88.0298 46.9702C87.881 46.6963 87.8065 46.3747 87.8065 46.0055C87.8065 45.6362 87.881 45.3155 88.0298 45.0432C88.1787 44.7692 88.3828 44.5571 88.6437 44.4067C88.9046 44.2563 89.2016 44.1812 89.5354 44.1812C89.87 44.1812 90.167 44.2563 90.4279 44.4067C90.6888 44.5571 90.8929 44.7692 91.0418 45.0432C91.1906 45.3155 91.2651 45.6362 91.2651 46.0055C91.2651 46.3747 91.1906 46.6963 91.0418 46.9702C90.8929 47.2426 90.6888 47.4539 90.4279 47.6042C90.167 47.7546 89.87 47.8298 89.5354 47.8298ZM89.5354 47.3011C89.7899 47.3011 90.0019 47.2442 90.172 47.1307C90.3428 47.017 90.4704 46.8625 90.5555 46.6671C90.6427 46.4699 90.6859 46.2494 90.6859 46.0055C90.6859 45.7616 90.6427 45.5419 90.5555 45.3464C90.4704 45.1492 90.3428 44.9939 90.172 44.8803C90.0019 44.7667 89.7899 44.7099 89.5354 44.7099C89.2817 44.7099 89.0697 44.7667 88.8989 44.8803C88.7288 44.9939 88.6005 45.1492 88.5133 45.3464C88.4282 45.5419 88.3857 45.7616 88.3857 46.0055C88.3857 46.2494 88.4282 46.4699 88.5133 46.6671C88.6005 46.8625 88.7288 47.017 88.8989 47.1307C89.0697 47.2442 89.2817 47.3011 89.5354 47.3011ZM91.847 47.7596V44.2513H92.4134L94.0445 46.7247V44.2513H94.5932V47.7596H94.1374L92.3929 45.1434V47.7596H91.847Z" fill="white"/>
<path d="M99.3045 46.5788C99.631 46.5788 99.8957 46.3141 99.8957 45.9876C99.8957 45.6611 99.631 45.3965 99.3045 45.3965C98.978 45.3965 98.7134 45.6611 98.7134 45.9876C98.7134 46.3141 98.978 46.5788 99.3045 46.5788Z" fill="white"/>
<path d="M103.824 47.7598V44.2515H105.024C105.349 44.2515 105.597 44.3233 105.769 44.467C105.943 44.6089 106.029 44.8211 106.029 45.1034C106.029 45.3039 105.986 45.476 105.897 45.6197C105.808 45.7634 105.675 45.8619 105.499 45.9154L105.541 45.8177C105.8 45.8661 105.997 45.9688 106.132 46.1259C106.268 46.2829 106.335 46.4942 106.335 46.7599C106.335 47.0706 106.235 47.3154 106.034 47.4941C105.834 47.6712 105.558 47.7598 105.208 47.7598H103.824ZM104.371 47.2686H105.145C105.331 47.2686 105.478 47.226 105.589 47.1408C105.701 47.0539 105.757 46.9144 105.757 46.7223C105.757 46.5134 105.698 46.369 105.584 46.2888C105.47 46.2069 105.323 46.166 105.145 46.166H104.371V47.2686ZM104.371 45.6748H104.949C105.113 45.6748 105.242 45.6423 105.336 45.5771C105.43 45.5103 105.478 45.3875 105.478 45.2087C105.478 45.0283 105.43 44.9055 105.336 44.8403C105.242 44.7735 105.113 44.7401 104.949 44.7401H104.371V45.6748ZM106.879 47.7598V44.2515H109.063V44.7626H107.432V45.6723H108.717V46.1835H107.432V47.2485H109.111V47.7598H106.879ZM109.683 47.7598V44.2515H110.229V47.2686H111.768V47.7598H109.683ZM112.194 47.7598V44.2515H112.74V47.7598H112.194ZM113.53 47.7598V44.2515H115.715V44.7626H114.084V45.6723H115.369V46.1835H114.084V47.2485H115.763V47.7598H113.53ZM117.207 47.7598L115.954 44.2515H116.515L117.547 47.1759H117.41L118.442 44.2515H119.006L117.753 47.7598H117.207ZM119.413 47.7598V44.2515H121.598V44.7626H119.967V45.6723H121.252V46.1835H119.967V47.2485H121.646V47.7598H119.413Z" fill="white"/>
<path d="M125.987 46.5788C126.314 46.5788 126.578 46.3141 126.578 45.9876C126.578 45.6611 126.314 45.3965 125.987 45.3965C125.661 45.3965 125.396 45.6611 125.396 45.9876C125.396 46.3141 125.661 46.5788 125.987 46.5788Z" fill="white"/>
<path d="M131.516 47.8298C131.372 47.8298 131.226 47.8173 131.078 47.7922C130.931 47.7688 130.795 47.7387 130.669 47.702C130.544 47.6652 130.442 47.6285 130.361 47.5917L130.431 47.0104C130.533 47.0605 130.648 47.1089 130.775 47.1557C130.903 47.2025 131.039 47.2417 131.18 47.2735C131.323 47.3052 131.466 47.3211 131.612 47.3211C131.814 47.3211 131.975 47.2835 132.095 47.2083C132.215 47.1315 132.275 47.0128 132.275 46.8525C132.275 46.7322 132.244 46.6344 132.18 46.5593C132.117 46.4824 132.021 46.4165 131.892 46.3613C131.765 46.3045 131.603 46.2452 131.406 46.1834C131.217 46.1232 131.044 46.0531 130.888 45.9729C130.732 45.8927 130.608 45.7883 130.514 45.6596C130.42 45.5293 130.374 45.3598 130.374 45.1509C130.374 44.9622 130.421 44.7951 130.517 44.6498C130.613 44.5028 130.756 44.3883 130.943 44.3064C131.13 44.2229 131.361 44.1812 131.637 44.1812C131.861 44.1812 132.068 44.2062 132.261 44.2563C132.454 44.3048 132.616 44.3574 132.747 44.4142L132.692 44.9856C132.498 44.882 132.314 44.8068 132.14 44.76C131.969 44.7132 131.791 44.6898 131.609 44.6898C131.412 44.6898 131.253 44.7249 131.131 44.7951C131.01 44.8653 130.95 44.9764 130.95 45.1284C130.95 45.2386 130.979 45.328 131.038 45.3965C131.096 45.4633 131.182 45.521 131.296 45.5695C131.409 45.6179 131.548 45.668 131.712 45.7198C131.961 45.7949 132.172 45.8802 132.346 45.9754C132.519 46.0706 132.652 46.1867 132.742 46.3238C132.833 46.4607 132.879 46.6303 132.879 46.8324C132.879 46.9627 132.856 47.0872 132.809 47.2058C132.765 47.3245 132.689 47.4314 132.584 47.5266C132.479 47.6201 132.339 47.6945 132.163 47.7496C131.989 47.8031 131.774 47.8298 131.516 47.8298ZM134.837 47.8298C134.508 47.8298 134.235 47.7663 134.02 47.6393C133.806 47.5107 133.646 47.3294 133.542 47.0956C133.436 46.8616 133.383 46.5843 133.383 46.2636V44.2513H133.93V46.1207C133.93 46.2828 133.941 46.4365 133.965 46.5819C133.99 46.7272 134.034 46.855 134.098 46.9653C134.161 47.0755 134.252 47.1624 134.371 47.2259C134.491 47.2894 134.647 47.3211 134.837 47.3211C135.029 47.3211 135.185 47.2894 135.303 47.2259C135.424 47.1624 135.515 47.0755 135.579 46.9653C135.642 46.8533 135.686 46.7255 135.709 46.5819C135.733 46.4365 135.744 46.2828 135.744 46.1207V44.2513H136.29V46.2636C136.29 46.5843 136.238 46.8616 136.132 47.0956C136.027 47.3294 135.867 47.5107 135.651 47.6393C135.438 47.7663 135.166 47.8298 134.837 47.8298ZM137.04 47.7596V44.2513H138.238C138.487 44.2513 138.703 44.2906 138.885 44.3691C139.067 44.4459 139.207 44.5679 139.303 44.735C139.402 44.902 139.451 45.1192 139.451 45.3865C139.451 45.6538 139.402 45.8726 139.303 46.043C139.207 46.2118 139.067 46.3362 138.885 46.4165C138.705 46.4966 138.491 46.5367 138.243 46.5367H137.602V47.7596H137.04ZM137.602 46.0631H138.171C138.411 46.0631 138.591 46.0088 138.712 45.9002C138.832 45.7916 138.893 45.6229 138.893 45.394C138.893 45.1635 138.834 44.9947 138.717 44.8878C138.6 44.7792 138.416 44.7249 138.165 44.7249H137.602V46.0631ZM139.957 47.7596V44.2513H141.155C141.404 44.2513 141.62 44.2906 141.802 44.3691C141.984 44.4459 142.124 44.5679 142.221 44.735C142.319 44.902 142.368 45.1192 142.368 45.3865C142.368 45.6538 142.319 45.8726 142.221 46.043C142.124 46.2118 141.984 46.3362 141.802 46.4165C141.622 46.4966 141.408 46.5367 141.16 46.5367H140.519V47.7596H139.957ZM140.519 46.0631H141.088C141.328 46.0631 141.509 46.0088 141.629 45.9002C141.749 45.7916 141.81 45.6229 141.81 45.394C141.81 45.1635 141.751 44.9947 141.634 44.8878C141.517 44.7792 141.333 44.7249 141.083 44.7249H140.519V46.0631ZM144.401 47.8298C144.067 47.8298 143.77 47.7546 143.509 47.6042C143.248 47.4539 143.044 47.2426 142.895 46.9702C142.746 46.6963 142.672 46.3747 142.672 46.0055C142.672 45.6362 142.746 45.3155 142.895 45.0432C143.044 44.7692 143.248 44.5571 143.509 44.4067C143.77 44.2563 144.067 44.1812 144.401 44.1812C144.735 44.1812 145.032 44.2563 145.293 44.4067C145.554 44.5571 145.758 44.7692 145.907 45.0432C146.056 45.3155 146.13 45.6362 146.13 46.0055C146.13 46.3747 146.056 46.6963 145.907 46.9702C145.758 47.2426 145.554 47.4539 145.293 47.6042C145.032 47.7546 144.735 47.8298 144.401 47.8298ZM144.401 47.3011C144.655 47.3011 144.867 47.2442 145.037 47.1307C145.208 47.017 145.336 46.8625 145.421 46.6671C145.508 46.4699 145.551 46.2494 145.551 46.0055C145.551 45.7616 145.508 45.5419 145.421 45.3464C145.336 45.1492 145.208 44.9939 145.037 44.8803C144.867 44.7667 144.655 44.7099 144.401 44.7099C144.147 44.7099 143.935 44.7667 143.764 44.8803C143.594 44.9939 143.466 45.1492 143.378 45.3464C143.293 45.5419 143.251 45.7616 143.251 46.0055C143.251 46.2494 143.293 46.4699 143.378 46.6671C143.466 46.8625 143.594 47.017 143.764 47.1307C143.935 47.2442 144.147 47.3011 144.401 47.3011ZM146.712 47.7596V44.2513H147.912C148.156 44.2513 148.368 44.2898 148.549 44.3666C148.731 44.4417 148.872 44.5578 148.972 44.7149C149.073 44.8719 149.123 45.0724 149.123 45.3163C149.123 45.5636 149.069 45.7666 148.962 45.9253C148.857 46.0823 148.709 46.2068 148.519 46.2987L149.308 47.7596H148.669L147.972 46.419C147.968 46.419 147.963 46.419 147.96 46.419C147.957 46.419 147.953 46.419 147.948 46.419H147.274V47.7596H146.712ZM147.274 45.9453H147.837C148.086 45.9453 148.267 45.8894 148.381 45.7774C148.496 45.6655 148.554 45.5168 148.554 45.3314C148.554 45.1392 148.497 44.9905 148.384 44.8853C148.27 44.7784 148.091 44.7249 147.847 44.7249H147.274V45.9453ZM150.428 47.7596V44.7625H149.419V44.2513H151.985V44.7625H150.975V47.7596H150.428Z" fill="white"/>
</svg>
